<?xml version="1.0" encoding="UTF-8"?>
<svg version="1.1" viewBox="0 0 2048 1990" width="674" height="655" xmlns="http://www.w3.org/2000/svg">
<path transform="translate(1062,34)" d="m0 0 6 1 3 2 25 5 6-1 3 2v2l-12 3h-4v-4l-7 2v5l5 4 6 2h14l8-2-1-8h18l15-4 7-1h8l12 3 24 13 14 6 5 1-2-3-12-5-2-4 6 1 10 5 14 4 16 2 25 2 23 4 16 6 5 3v2l-5 3-1 2 9 3 13 4-7-5v-1l9 1 12 5 5 4 2 4 9 1 12 4 14 8 4 2-4 1-5-2 4 4 13 6 16 5 5 8 1 3 6 2-5-5-3-2v-2l11 1 23 6 29 10 32 12 24 11 24 12 24 14 23 14 22 14 54 36 20 14 11 7 2 1h15l2 4-2 4 1 5 23 23 8 7 16 16 8 7 13 13 2 1v2l4 2 17 17 7 11 5 10 9 11 10 13 10 17 25 51 14 23 8 14 8 20 5 17 4 24 1 9v39l-1 14 2 5v9l-5 10v8l1 2v10l-1 4v7l2 4v10l8 18 5 14 1 11-6-3 5 13-1 3v7l3 7 1 9-4-1 4 19 7 47 4 38 2 27 1 25v32l5 1-1 2-1 11h3l4-16 4 2 7 21 2 10v18l-3 10-6 4-5 2-3 7 1 17 1 23-4 2v6l1 3-2 3-4 25-3 14 5-1 1 4-1 19-5 16-12 25-4 8-1 4 9 1 15 5 10 7 7 7 5 8 4 12 2 21v156l-2 19-5 13-9 13-4 5-11 7-13 4-15 2-17 1-90 1-13 17-7 11-13 18-7 11-8 16-6 16-7 13-8 10-1 2v7l21 4 2 3-2 6-7-1-10-3-22-2-4 4-1 3 8 1h51l18 2 19 4 18-1h15v2h-19l4 4 20 9 7 6v2l-9-1-19-6-28-4h-81l-6-1-2 6-8 10-21 21-22 18-19 14-48 32-24 15-32 19-28 16-18 10-28 13-25 12-16 8-17 14-8 6 2-10-14 4-35 13-55 18-43 12-38 9-9 7h-2l1-5-38 13v7l-2 7-3 3-27 1-30 7-16 3-9 1h-9l-2-5 5-6v-2h-10l-10 8-2 1h-7l-6-3-7-4-14-1-2-1h-10l-8 5-11-1-21 7-8 1-6-3-10-7-4-4-10 2h-10l1-2-46-6-40-4-36-4-45-7-18-3-4-5-1-2h-21l-13-2-14-6-6-7-3-7v-4l-5-2 4-2h2l-3-5-11-8-3-1-2 5-3 4-7-1-21-9-11-7-4-4h-45l-21-3-18-4-14-2-15-8-7-2-17-8-12-5-8-6-5-8-3-6-3-2-43-1-11-1-1 9-2 3-6-1-1-2-5 1-23 13-16 9-10 5 2-4 11-10 17-13 18-13 16-12v-2l-19-3h-22l-7 2h-6l-1-1h-8l-18 7-16 6-28 12-28 10-21 6-25 5-26 4-17 5-2-1 4-4 12-5 45-12 29-10 25-11 18-10 23-13 10-6 1-3-22-3-20-3h-45l-9-3v-2l8 1h18l19-2h26l18 3 4 1h12l3-5-1-4-10-3-42-17-19-6-21-4-10-2-1-2h26l28 5 20 5 4 2v2l12 4 24 2 26 5 28 7 23 4 27 2v-2l-17-3-20-4-60-15-15-6-27-15-4-4-2-6-8-4-3-1v-3l5 1 8 4 21 6h10l-1-4-27-14-17-11-9-7 2-4 6-7 7 1 46 20-4-6-13-18-2-4-25-13-24-14-19-12-16-11-18-13-19-14-13-11-10-9-9-9-13-17-8-13v-2l-5-1-10-7-2-4 2-5 4-2 9 12 3 6v2l5 2 4 6 10 6 13 13 17 13 15 11 27 18 25 15 28 15 10 5-17-13-10-8-12-11-11-11-6-7-12-5-14-9-10-10-9-14-5-14-3-19-1-22-7-11-13-18-12-19-11-19-6-13v-2l6 2-3-6-7-7-10-15-8-16-10-22-7-18h2l-4-16v-18l-2-11-4-11-1 19-2-3-5-16-2-3-5-2 1-7 3-8-1-15 4 2 3 6v2h2v-30l-5-2-5-8-5-2 2-6 5 1 6 5 2 1-3-13-8-4-4-13-1-1-3 5h-2l-2-9-3-22-2-25-2-44-4-37v-7l4-11 2-26 3-34 3-9 7-5v-33l-2-10-1-13-2 12-2-1v-29l2-15 2-3 1 1 1 29 3 20v-65l-14-8-14-12-10-11-7-11-5-10-2-7v-10l5-6h7l32 12 18 8 5 2v-35l3-15 4-1 4-23 6-11 3-1-1 6-4 14 8-7 10-14 1-4v-9l-4-2-2-5 3-3 4 2 1 4 6-21 7-29 3-15 1-7 3-3 7-20 7-22 4-10 3-4-1-6-5-11-5-17-3-18-1-11v-18l2-21 3-5 3-2 7 1 5 6 8 14 7 21 4 19 1 7 7-6h7l-1 5-3 7 6-4 6-10 2-5 1-16 5-9 6-5 11-17 16-25 6-10 4-4 5-2 10-9 12-13 11-14 9-10 7-8 14-12 8-5h2l1-8 5-6 5-5 1-2v-8l5-4 6-4 11-14 8-9 10-10 2 1-5 8 2 5 2 2 7-7 9-14 10-15 10-10 10-5 13-3 1-6 7-8 4-2h-3l-26 14-7 1 1-5 8-7 14-9 21-13 14-8 23-13 33-17 34-17 24-11 3-1 1-4 9-5 11-4 16-4 13-6 16-3 46-11 21-7 12-5 12-3 6-5 3-6 6 1 2 2 6-1 8-4 9-9 10-3h7l9 2 1 3v7l24-5 3-1-1-6-1-4 6-1 8 1v-2l-4-1v-2l8-2h11l3 2 11 1h11l18-2 6-1-3 3-5 3 1 3 20-1 3 5 2 1 10-1 12-6 16-2 8 2-1-2-4-2 9-1h48zm-173 2 2 2 1-2zm-58 22-1 2h6v-2zm-314 131-15 6-1 3 6-1 9-5 2-1zm1395 1149-12 22-3 9v50l1 41 13-2 1-4 1-13v-103zm-1424 460-14 2 1 4 5 4 8 3 23 3 5 1v-2l-21-14zm-4 31 1 4 8 4 12 3 33 4h23l1-2-9-6-28-1-27-3z" fill="#465749"/>
<path transform="translate(1062,34)" d="m0 0 6 1 3 2 25 5 6-1 3 2v2l-12 3h-4v-4l-7 2v5l5 4 6 2h14l8-2-1-8h18l15-4 7-1h8l12 3 24 13 14 6 5 1-2-3-12-5-2-4 6 1 10 5 14 4 16 2 25 2 23 4 16 6 5 3v2l-5 3-1 2 9 3 13 4-7-5v-1l9 1 12 5 5 4 2 4 9 1 12 4 14 8 4 2-4 1-5-2 4 4 13 6 16 5 5 8 1 3 6 2-5-5-3-2v-2l11 1 23 6 29 10 32 12 24 11 24 12 24 14 23 14 22 14 54 36 20 14 11 7 2 1h15l2 4-2 4 1 5 23 23 8 7 16 16 8 7 13 13 2 1v2l4 2 17 17 7 11 5 10 9 11 10 13 10 17 25 51 14 23 8 14 8 20 5 17 4 24 1 9v39l-1 14 2 5v9l-5 10v8l1 2v10l-1 4v7l2 4v10l8 18 5 14 1 11-6-3 5 13-1 3v7l3 7 1 9-4-1 4 19 7 47 4 38 2 27 1 25v32l5 1-1 2-1 11h3l4-16 4 2 7 21 2 10v18l-3 10-6 4-5 2-3 7 1 17 1 23-4 2v6l1 3-2 3-4 25-3 14 5-1 1 4-1 19-5 16-12 25-4 8-1 4-16-1-97-1v9l-5 1v71l-1 138-6 5-6 7h-1v-13h-52l-1-1v-58l44-1v-52h-44v-50l18-1h29l-1-55h-117l-1 9-3 3-7 8-11 9-3 1-1-30-31-1 1-3 8-7 12-11 17-16 15-14 7-8 1-3 5 1 16 9 12 4 8-2-1-9-6-25 1-5 9-11 10-14 11-19 8-17 26-3 12-4 6-4-1-4-4-5-17-13-15-10-16-8-16-6-12-3-8-1-32-1 4-4 8-7 4-8 7-23 7-30 7-35-1-11 1-2 18-2 25-4 18-5 5-2h5l-3 25-4 25-5 17-8 18-5 11v5l-9 8-11 8-1 6 2 2 4 1h31l17-4 16-6 14-8 11-9 9-11 3-5-1-5-4-1-27 6-24 7h-5l3-10 6-24 5-31 4-36 2-31v-72l-3-47-4-35-7-46-9-43-7-28-10-30-7-16-5-2-2 2 4 16 9 29 9 36 7 30v3l-11-1-12-2h-26l-13 2-3-9-7-38-7-37-9-36-12-38-14-36-13-28-13-24-20-30-13-16-11-14-10-11-9-11-18-20-10-10-7-8-14-14-8-7-9-9-8-7-14-12-13-11-11-9-16-13-18-13-19-13-15-10-14-8-19-11-25-14-27-14-16-6-6-1 4 6 25 15 14 8 24 15 25 17 14 10 17 13 16 13 11 9 15 13 10 9 12 11 26 26 7 8 11 12 9 11 12 14 10 13 12 16 12 17 16 24 11 18 10 17 14 26 13 26 9 22 3 8v3h-2l-15-28-14-19-13-15-9-11-10-10-7-8-13-10-11-6-10-10-6-8-7-1h-6l-2-1-1-14-17-14-17-13-18-14-10-7-18-13-17-11-21-13-24-13-15-7-25-9-18-5-32-6-35-6-23-6-17-3-22-3-15-4-7-1-10 3h-19l-7-3 1-2 16-5 1-2-8 1-9 3-3 2h-15l-4-4h-13v3l11 1 1 3h-52l-26 1-36 4-13 2h-11l1-5 1-3 31-4 44-5 57-4h46l29 2 42 5 41 7 30 7 38 12 32 13 48 24 20 12 17 11 22 15 12 9 13 10 15 12 17 12 13 8 13 7-6-11-10-10-7-8-32-30-11-9-12-11-9-7-11-9-18-14-14-11-10-8-11-8-9-7-16-10-22-12-27-12-27-9-34-8-33-5-19-2-66-3h-31l-38 4-34 6-61 13-10 1-2-3-4-22-5-15-1-4h-7l-2 4-9 20-9 24-3 9-24 5-17 4-6 1-9-7-15-10-15-9-15-6-5-3-12-2-21-6h-5l-3 3-1 6 8 18 9 14 13 16 11 12 8 7 5 3 6 5 8 5-2 5-7 10-10 14-11 14-6 8h-2l-3-15-4-18-3-7-4-9-5-14-10-21-9-16v-4h6v-2l-14 1-2 4-1 14-1 30v27l1 1 2 23 1 8v14l-6 2-22 4-39 10h-9v-8l3-20v-26l-4-24-6-21-8-20-1-3h-6l-4 5-6 20-3 21v36l3 26 4 20v7l-12 3-30 13-4-2-13-13-14-10-11-3v3h-3l3-9 12-29 12-30 4-11-7 2-10 8-12 11-8 7-7 7-9 11-10 12-13 20-8 15-8 19-6 19-2 8 8-2 16-8 13-9 12-11 10-13 7-13 3-2 1 16 4 16 8 16 2 6-15 8-15 10-11 7-8 7-14 8-6 8-4 17-8 10-4 9h-2l-1-55v-38l2-20 1-3-6 1-2 11-4 29-1 15v38l2 43v11l-1 1-11 2-11 10-3-1-2-11-1-8-4-2-3-11-8-16-1-5-2 1v4l3 3 5 21 2 25v27l-5 1h-11l-2-6-1-14-3-25-5-25-5-18-10-24-10-19-7-11-3-4-5 1-5 13-4 21-1 16 1 18 3 20 1 7-4 2-9 9-14 16-9 14-7 11-7 6 4 4 2 1 3-9 1-2h2v-2l6-3 10-13 8-10 5-5 1 4-6 23-5 12-8 12-5 1-10-5-8-3-4-3-26-10-14-4-13-2h-20l-1 5 4 6 12 14 14 11 13 8 10 5 7 3v2l8 1 29 6-1 7-1 2v23l7 24 8 30 8 20 8 14 11 16 8 11-1 6-8 21-11 27-4 11-3 2-3-3-3-11-4-1h-2l-5 30-2 30-2 18-1 15v15l3 28 3 12 4 1 8-16 4-13 3-17 1-15v-27l2-17h-2l1-4 2 1 4-20 6-19 8-21 10-21 2-5 14 8 9 5 21 6 10 2h24l11-2 6 9 20 20 8 7 35 35 10 14 9 14 10 21 5 16-1 5h-4l-12-29-8-15-9-13-13-16-5-6-15-10-33-15-2 4-2 10-1 27 1 21 4 14 7 14 9 11 8 8 16 12 18 12 15 9 19 10 11 8 11 10 5 3h5l2-4-9-19-6-20-6-33-5-19-11-28-11-21-5-8-12-12-7-8-8-9-8-7-5-6 6 2 11 9 12 8 18 13 6 8 9 7 17 17 10 15 7 16 4 13 6 29 6 21 10 24 9 19 4 7-1 4-2 2-10-1-12-4-16-7-20-6-24-4-53-5-25-2-39-5-99-9-18-4-17-7-16-10-13-10-7-6v-2l-6-2-11-7-14-12-11-8-13-11-8-6-1-4 3-8 6 1 4 1 3-5 1-4v-29l-5-29-2-13-2-2-2-5-3-4-7-17-9-15-9-12-9-10-7-8-21-21-7-5h-3l-2 8-6 16-7 20-7 12-2 11 3 8 1 3-10 5-5 5-2 4-1 18v4l-4-1-11-10-11-7v-2l-6-2-14-7 1-36 3-15 4-1 4-23 6-11 3-1-1 6-4 14 8-7 10-14 1-4v-9l-4-2-2-5 3-3 4 2 1 4 6-21 7-29 3-15 1-7 3-3 7-20 7-22 4-10 3-4-1-6-5-11-5-17-3-18-1-11v-18l2-21 3-5 3-2 7 1 5 6 8 14 7 21 4 19 1 7 7-6h7l-1 5-3 7 6-4 6-10 2-5 1-16 5-9 6-5 11-17 16-25 6-10 4-4 5-2 10-9 12-13 11-14 9-10 7-8 14-12 8-5h2l1-8 5-6 5-5 1-2v-8l5-4 6-4 11-14 8-9 10-10 2 1-5 8 2 5 2 2 7-7 9-14 10-15 10-10 10-5 13-3 1-6 7-8 4-2h-3l-26 14-7 1 1-5 8-7 14-9 21-13 14-8 23-13 33-17 34-17 24-11 3-1 1-4 9-5 11-4 16-4 13-6 16-3 46-11 21-7 12-5 12-3 6-5 3-6 6 1 2 2 6-1 8-4 9-9 10-3h7l9 2 1 3v7l24-5 3-1-1-6-1-4 6-1 8 1v-2l-4-1v-2l8-2h11l3 2 11 1h11l18-2 6-1-3 3-5 3 1 3 20-1 3 5 2 1 10-1 12-6 16-2 8 2-1-2-4-2 9-1h48zm-173 2 2 2 1-2zm-58 22-1 2h6v-2zm-314 131-15 6-1 3 6-1 9-5 2-1z" fill="#F8F7F4"/>
<path transform="translate(1296,104)" d="m0 0 9 1 17 7 29 15 23 13 19 11 18 11 17 12 16 11 13 10 10 8 11 9 13 11 11 9 13 12 8 7 9 9 8 7 15 15 7 8 11 11 7 8 12 14 9 11 12 14 10 13 9 12 13 20 16 29 12 26 12 31 9 27 9 31 8 36 9 50 4 18 13-2h26l23 4-7-28-7-30-9-31-6-19-1-7 5-2 5 5 6 14 10 30 8 32 9 45 7 47 3 28 3 47v72l-2 31-5 42-5 30-6 22-3 7 26-7 25-6 8-1 3 3-1 6-10 13-10 9-13 8-11 5-21 6-5 1h-31l-5-2-2-2 1-6 18-14 2-4 1-6 10-21 6-18 4-22 4-29 1-3-21 6-17 4-15 2-18 1 1 13-10 49-8 30-6 16-3 3h-22l-32-3-21-4-35-9-20-8-40-19-20-11-4-3-8-1-18-11-10-8 4-2 18 1 26 2 9 1h19l26-3 21-6 15-6 16-8 9-5 1-3-12-3h-24l-19 2-12 3-10 2-21 5-23 5-8 1h-38l-14-1v-3l11-2 16-6 9-5 10-4 7-8 3-7v-6h-7l-15-4-10-2h-36l-6 1h-10l-12 3-15 3-17 1h-29l-18-4v-5l2-3-4 1-1 6-18-4-26-5-13-2-13-4-15-2-7-2-30-11-12-6-3-3 2-4 14-8 28-9 16-8 21-7 15-3 23-2 10 1 4 2 4 16 7 21 7 16 4 1 10-11h2l3-9 8-19 4-11 6-7 10-4 11-2 19 1 21-4 26-8 16-8 3-3v-4l-10-4-22-5-30-4h-26l-12 2-10 4-11 7-17 13-16 8-6 2-3-3 2-5 22-22 17-12 15-9 15-6 14-5 24-7 15-5 26-4 11-1 75-2 6-1-1-2-15-2-16-1h-34l-34 3-18 2-1-2 4-6 7-7 10-4 8-7 11-9 11-8 6-7 10-13 8-8 7-10 3-6 10-9 12-15 11-18 4-5 9-22-12 6-6 4-4 1-3-2 2 3-11 8-10 8-14 10-13 11-11 9-5 6-5 5-15 33-4 14-2 10-7 11-17 10-16 12-14 8-8 1-3-6 3-14 4-9 5-10 7-7 10-4 15-3 14-8 10-7v-5l-2-2-28-4-40-9h-7l-2-1-42-3-22-3-26-5-31-6-11-2 2-5 9-10 9-11 11-13 8-12 1-8-13 1-26 6-5 1 4-3 7-4 10-6 12-11 11-12 11-17 11-18 7-11v-7l-5-2 6-10 7-10 3-4 5 2 19 19 14 10 14 8 16 6 14 3h22l4-4-1-4-25-15-18-10-17-7-19-6-18-5-6-4 5-10 3-5-5 5-4 5-9 6-5 6-8 7-14 12-18 11-9 4h-2l1-7 9-9 6-8 10-13 6-8 4-5 7-11 9-10 8-15 6-15 4-14 3-14v-13l-3-22-8-20-7-13-5-6-5-1-6 4-9 11-7 10-8 10-23 46-5 21-7 27-3 19-1 9v19l2 16 3 12 3 2 9-2h6l-4 4-21 12-32 17-8 4-3 3-1-3 5-5 10-23 10-28 8-28 9-42 6-26 6-29 3-23 1-9h-5l-3 21-10 43-6 27-5 26-9 35-8 23-11 24-8 12-9 8v-3l5-15 1-4v-23l-3-12-10-22-10-16-6-1v27l2 14 6 18 7 14v8l-1 2-9-1-23-4h-16l-1 4 8 5 23 11 10 5-2 6-11 17-10 13-11 13-9 10-36 36-7 8-7 7-7 8-8 8-4 2-1-3 6-8 10-14 9-12 11-14 20-26 8-14 5-17 1-11-2-4-3-1h-7l-3 3-7 16-8 15-13 18-11 13-11 14-10 12-14 20-6-2-7-7-4-8v-9l4-9 11-9 15-7 12-5 10-7 7-7 10-14 12-21 13-29 1-9-7 1-8 7-14 15-10 13-14 20-10 14-4 2 1-9 2-15v-29l-3-15-4-10-6 1-6 10-8 20-9 29-10 43-1 6-4-2-13-18-13-21-12-22-10-22-6-13-2-1 3 10 4 10 7 18 4 12 10 19 11 17 14 19 10 18 11 9 6 7 2 5-1 11-7 18-3 3-2 7-4 5-3 5-4 7-16 38-9 20-6 8-5 4-7 1-8-7-14-37-5-13v-5l10-2 16-3 12-6 7-4h2v-2l-10-3-14-4-25-4-11-2-16-2-6-5h-4l-3 5-11 1-38 2-27 3h-4v-3l9-6 13-10 8-7 2-5-2-3-16-4-22-3h-36l-22 7-12 5-12 7-12 11-7 8-5 9v6l7 3h47l21-3 16-5 4 1 6 7 12 7 13 5 14 3 14 1h23l25-3h6l8 5 7 9 9 16 11 25 4 5 5 15 3 19v10l-3 21-8 24-12 25-10 16-7 9-9 11-21 21-10 13-11 17-12 24-8 18-8 14-5 4-4 1-11-3-8-6-2-8-2-21v-21l3-16 3-9 2-10 3-9 4-6 10-25 8-17 1-4-4-4-4 1-11 15-9 15-9 20-7 15-10 33-6 16-5 4-5-1-6-7-13-22-13-24-12-24-14-33-10-28-9-30-14-56-2-12v-33l2-4 1-7 8-15 8-16 10-16 12-13 11-10 12-8 14-12 14-11 13-12 9-11 6-10v-5h-7l-10 4-8 6-8 9-7 10h-1l-1-15 2-11 11-28 11-27 11-26 13-30 16-33 17-33 1-3 1-12 4-4v-11l13-19 11-17 8-17 14-48 2-4 3-2 10 2 18 8 10 6h5l3-1-4-27-5-17-8-12v-2l-4-2-9-9 3-2 14-4 26-5h3l2-9 9-24 9-20 3-4h7l6 15 4 20 2 8 10-1 66-14 29-5 38-4h31l66 3 34 4 23 4 32 8 24 8 29 13 22 12 21 14 11 9 11 8 12 10 13 10 10 8 11 9 10 8 12 11 11 9 16 15 17 16 12 13 6 9 1 4-6-2-17-10-17-12-14-11-18-14-18-13-15-10-22-14-21-12-44-22-33-13-35-11-30-7-41-7-42-5-29-2h-46l-57 4-44 5-24 3h-7l-2 8 24-3 36-4 26-1h22l30 1-1-2-9-1-2-1v-3l2-1h11l4 4h15l8-4 8-2 5 1-4 4-14 4 2 2 4 1h19l10-3 7 1 15 4 33 5 21 5 24 5 47 8 19 5 23 8 18 8 21 11 18 11 19 12 17 12 15 11 19 14 16 13 14 11 6 5v14h13l5 4 7 9 9 8 11 6 11 9 16 17 9 10 9 11 12 15 9 14 12 22v2h2l-5-13-10-24-16-32-10-18-16-27-18-27-12-17-13-18-10-12-11-14-10-11-7-8-11-12-7-8-27-27-8-7-10-9-11-9-14-12-14-11-21-16-42-28-23-14-21-12-12-8-3-4z" fill="#BFBFAF"/>
<path transform="translate(159,833)" d="m0 0 6 1 9 4 11 6 8 6 4 5 16 9 5 6 6 4 11 10 8 7 17 16 8 7 12 11 10 10 8 7 11 11 8 7 8 8 8 7 5 5v2l-3 1-17 1 2 4 18 5 21 4 39 4 45 4 45 3 23 3 16 3 14 1 31 4 15 4 4 4-1 6-2 6-15 6-22 12-20 12-8 8-2 5h4l11-9 11-7 13-6 33-11 16-2h36l24 4 24 8 16 8 15 9 16 13 10 9 13 13 9 11 12 15 6 10 6 15 3 19v11l-3 33v33l3 18 6 16 6 11 14 19 10 13 14 19 9 15 6 15 5 19 5 25 6 22 7 20 11 25 7 15 3 11 1 15-3 15-5 11-6 10-12 13-7 7-7 8-8 8-18 13-16 10-19 9-29 7-11 6-12 11-10 9-14 7-7 2h-5l-1-5v-3l-6 4-5 2h-9l-11 4-20 5-11 6-10 7-17 8-17 5-5 1h-7l-6-2h-18l-23 4 34 1 5 2-2 3-21 5-15 4-16 4-9 4-9 6-17 8-7 3-26 5-8 1h-10l-5-3-26-4-68-17-15-6-27-15-4-4-2-6-8-4-3-1v-3l5 1 8 4 21 6h10l-1-4-27-14-17-11-9-7 2-4 6-7 7 1 46 20-4-6-13-18-2-4-25-13-24-14-19-12-16-11-18-13-19-14-13-11-10-9-9-9-13-17-8-13v-2l-5-1-10-7-2-4 2-5 4-2 9 12 3 6v2l5 2 4 6 10 6 13 13 17 13 15 11 27 18 25 15 28 15 10 5-17-13-10-8-12-11-11-11-6-7-12-5-14-9-10-10-9-14-5-14-3-19-1-22-7-11-13-18-12-19-11-19-6-13v-2l6 2-3-6-7-7-10-15-8-16-10-22-7-18h2l-4-16v-18l-2-11-4-11-1 19-2-3-5-16-2-3-5-2 1-7 3-8-1-15 4 2 3 6v2h2v-30l-5-2-5-8-5-2 2-6 5 1 6 5 2 1-3-13-8-4-4-13-1-1-3 5h-2l-2-9-3-22-2-25-2-44-4-37v-7l4-11 2-26 3-34 3-9 7-5v-33l-2-10-1-13-2 12-2-1v-29l2-15 2-3 1 1 1 29 3 20v-64l9 3 15 6 2 2 20 4 17 3h7l4-1-1-10-1-7z" fill="#F8F7F4"/>
<path transform="translate(1175,872)" d="m0 0h11l18 4 44 11 36 6 28 5 16 5 28 11 8 3-1 2-36 10-43 9h-2l2 6 16 5 14 2h32l17-7 16-8h9l14 10 14 14v-2l-8-9-8-11-9-10-5-4-18-7-2-4-14-8-10-5 3-1 23 6 16 4 18 6 24 10 8 6 6 2v3l-5-1-1 7 5 30 4 18 4 26 8 16 7 11 9 11 5 3h7l2-7v-28l-3-17-5-15-8-15-10-13-11-12-5-8-1-4 6 2 15 10 25 14 15 11 12 11 8 8 13 17 8 10 13 14 17 13 21 12 10 5h7l1-3-8-16-12-17-13-14-11-9v-2l3-1 27 8 20 4 17 2 35 2h13v1l31 1 16 3 18 6 16 8 16 10 14 11 8 7 2 3-1 4-8 5-10 3-20 2h-6l-2 6-8 17-12 19-7 9-9 11 1 7 6 27-1 5-8 2-14-5-16-9-3-1-1 5-16 16-8 7-7 7-8 7-8 8-8 7-5 5h31l1 1v30l10-8 9-8v-3l4-2 1-9 4-1h114l1 1v55l-29 1h-18v50h44v52l-12 1h-32l1 58h52l1 2v11l8-9 3-2 1-141v-68l4-1h2v-9h97l21 2 16 5 8 4 10 9 7 10 4 12 2 21v156l-2 19-5 13-9 13-4 5-11 7-13 4-15 2-17 1-90 1-13 17-7 11-13 18-7 11-8 16-6 16-7 13-8 10-2 9-14-1-30-3-14-1v-3l14-9 24-16 23-12v-6l-23 5-35 9-21 6-5 4-3 6-7 3-11 3-33 2-42 1h-62l-26-2-31-4-34-6-34-8-28-8-32-11-11-9-18-13-23-16-17-12-18-13-10-9-7-7v-2l48-1 19-2 11-3 7-4 8-10 4-10 2-9 1-9v-57l-3-14-6-12-9-8-12-6-6-2 1-2 14-5 10-9 4-10 2-15v-21l-2-17-4-14-7-12-3-3 3 10 5 22 3 22 1 19-1 14-2 4-4-2-9-11-10-18-6-15-5-19-3-20-1-11v-11l-13-1-102-1v200l-4-2-16-13-16-15-9-12-8-16-5-18-2-16-1-33-5-55 1-21 4-16 6-12 9-11 10-9 12-7 14-4 5-1h21l13 2h11l-1-3-6-3-10-2-24-3h-14l-17 3-8 4-17 17-9 14-5 13-3 17v22l6 66 2 45 1 9-8-5h-7l-5 7-3 8-2 10-5 12-6 10-6-1-10-6-6-7-8-16-11-35-6-14-12-22-4-9-1-5v-13l4-26v-12l-3-21-5-16-9-23-6-21-2-13v-26l6-17 9-17 12-16 10-10 11-9 2-4 14-5 18-8 20-6 18-3 31-2h28l7 2 3 6v1h10l23 6-5-4-12-7-2-3 9-4 25-6 19-3 11-1h31l28 4 28 6 18 6 14 7 9 3 6 5 9 11 11 12 12 11 14 11 19 14 18 10 14 6 20 5 18 2-3-14-6-5-7-8-8-8-17-13-14-10-16-9-22-12-12-5-27-7-24-8-23-10-12-4-15-4-24-3h-39l-26 3-26 5-14 5-11 1-2-1 1-3 14-7 22-7 18-4 14-2h56l28 4 17 3 16 5 10 4 32 6 19-1 11-2 1-2-13 1h-11l-19-5-20-6-31-10-25-5-19-2h-41l-28 3-27 5-15 5-15 8-12 9-12 5-8 1-23 1-24 3-22 5-16 6-16 8-5 4-14 10-10 9-8 10-8 13-7 15-5 15-3 17v35l4 30 3 24v20l-5-1-12-11-8-11-8-15-6-18-5-20-3-18-1-10v-35l4-25 6-21 7-18 10-20 12-19 13-17 13-15 13-13 22-18 17-11 17-10 27-12 24-8 23-5 5-1h20l20 2 17 5 21 10 12 8 4 3-2-4v-11l-10-3-10-9-11-7-13-5-18-3-22-3-3-2 2-4 18-5zm737 466-12 22-3 9v50l1 41 13-2 1-4 1-13v-103z" fill="#BFBFAE"/>
<path transform="translate(1080,1615)" d="m0 0h20l18 3 25 8 40 9 18 5 4 4v13l4-1h11l4 5-1 6-4 3h-22l-18-3-8-4-10-3-16-8-3-5v-7l-4 2-2 8 5 7 13 8 11 4 16 2 3 1-1 5-18 14-15 10-16 8-8 2h-7v2h9l18 3v-2l-4-1v-3l26-8 36-10 31-9 18-3h19l17 3 13 4 4 2 1 2v8l8-1 9 8 6 7 13 7 3 2v-2l-6-5-6-9-9-9-2-1v-3l19-7h31l75 3 21 2 28 7 5 1 25 6 16 2v-2l-25-5-18-3-24-6-14-3-24-3-13-1-50-1v-2l5-1 37-1 5-1 2-4 8-4-20-1h-61l-7 3h-4l-5-6-8-7-2-3v-7l5-5 13-6 5-1h11l37 8 33 6 23 3 9 2 11 8 8 7 8 4 13 3 10 5 20 6 25 5 30 4v-2l-21-3-26-5-19-5-14-5-7-2-10-7-12-8-2-4 1-1 70-2 63-4 21-3h17l16 4 17 7 26 6 24 5-2 7-8 10-21 21-22 18-19 14-48 32-24 15-32 19-28 16-18 10-28 13-25 12-16 8-17 14-8 6 2-10-14 4-35 13-55 18-43 12-38 9-9 7h-2l1-5-38 13v7l-2 7-3 3-27 1-30 7-16 3-9 1h-9l-2-5 5-6v-2h-10l-10 8-2 1h-7l-6-3-7-4-14-1-2-1h-10l-8 5-11-1-21 7-8 1-6-3-10-7-4-4-10 2h-10l1-2-46-6-40-4-36-4-45-7-18-3-4-5-1-2h-21l-13-2-14-6-6-7-3-7v-4l-5-2 4-2h2l-3-5-11-8-3-1-2 5-3 4-7-1-21-9-11-7-4-4h-45l-21-3-18-4-14-2-15-8-7-2-17-8-12-5-8-6-5-8-3-6-3-2-43-1-9-2 5-4 17-7 18-4 10-1h21l1 5 4 3 8 3 23 3 4 1-1-1-17-12-2-1v-2l35-4 24-5 25-7 25-10 27-13 22-12 27-14 4-1 4 20 4 4-3-10v-13l1-2h2l1-3 26-6 25-9 24-8 5-1h9l-3 5-6 7-2 5v8l6 11 7 8 3 1-9-18v-10l6-8 9-6 8-4 8-2h47l17 3 7 3 8 2 12 1 33 10 24 6 4 3 8 3-3-4-11-4-17-7-25-7-17-4-17-7-1-3 5-3h32l20-4 50-17 4-1h12l5 5 3 7 3 24 6 27 2 11-3 10-5 15-8 17-5 8 5-3 9-9 5 1v4h2l3-14 10-26 3-11v-14l-2-14v-14l14 3 18 6 6 4 8 7 9 4 2 2h3l-9-7-5-6v-4l16 3h5l-11-5-8-3-1-2 4-7 13-3 7-1v-3l-4 1h-34l-4-8v-7l5-4 9 1 35 11 6 2 28 1 2-2-21-3-29-9-21-9-8-4-1-2-10-2-5-5-1-7 4-6 10-10 10-5zm-596 214 1 4 8 4 12 3 33 4h23l1-2-9-6-28-1-27-3z" fill="#BFBFAE"/>
<path transform="translate(1683,1233)" d="m0 0h117l1 1v55l-29 1h-18v50h44v52l-12 1h-32l1 58h52l1 2v11l8-9 3-2 1-141v-68l4-1h2v-9h97l21 2 16 5 8 4 10 9 7 10 4 12 2 21v156l-2 19-5 13-9 13-4 5-11 7-13 4-15 2-17 1-90 1-13 17-7 11-13 18-7 11-8 16-6 16-7 13-8 10-2 9-14-1-30-3-14-1v-3l14-9 24-16 23-12v-6l-23 5-35 9-21 6-5 4-3 6-7 3-11 3-33 2-42 1h-62l-26-2-31-4-34-6-34-8-28-8-32-11-11-9-18-13-23-16-17-12-18-13-10-9-7-7v-2l48-1 19-2 11-2 1 4h32l4-2 3 1 1-5v-257h6l1-4v268h72l-1-32 1-90h9l7 3 3 4 1 6 1 108 3 1h63v-92l-1-17-3-10-6-9-8-7-8-4-8-2 1-2 15-4 8-6 5-8 4-15 11-8 9-7h2v195l-1 5 125 1v-9l5-2v-54h-50l-1-1v-50l1-9h43v-39l-4 2-11 8-14 11-16 13-14 11-15 14-8 7-9 7-5 2h-3l1-5 7-8 40-40 4-5 8-7 17-17 5-4 1-2h-28v-42l1-9 17-1 6-4 14-12 8-6 1-15h1v13l10-8 9-8v-3l4-2 1-9zm229 105-12 22-3 9v50l1 41 13-2 1-4 1-13v-103z" fill="#C0C0AF"/>
<path transform="translate(201,1130)" d="m0 0 9 1 12 7 15 10 27 14 23 13 15 9 16 12 16 13 11 9 13 11 9 7 15 13 10 9 11 9 7 6 1-3h6v-10l2-1h102l4 25 10 70 6 37 5-37 9-71 1-10 1-2 5 2 19 13 17 11 15 8 5 3-1-4-8-7-36-26-14-10v-2h103v200l-5-2-9-3 2 5 11 9 1 1v45l-8-8 9 12-1 46-5 2-1 7h-69l-1-79-4-2-5-3-4 26-7 48-1 2-5 1v7l-2 1h-43l-6-2-8-55-7-50-4-27-1-2-1 19v37l-1 71-6 1v7l-3 1-48 1 25 10 28 10 43 13 52 13 34 7 19 3 32 1-1 4-8 5-28 7-23 4-8 1h-25l-18-3-26-6-31-9-33-12-26-11-23-11-22-12-30-18-11-7-9 6-12 5-16 4-6 1h-33l-20-3-5-3-16-8-9-7-8-8-9-14-5-14-3-19-1-22v-47l1-17v-72l2-22 2-9 5-9h2l1-5 8-14 9-10 9-8 16-9 13-4 19-3h24l22 4 15 6 10 6 10 9 7 7 8 14 4 11 2 13 5 2 19 12-1-41-13-10-18-13-16-12-14-10-17-12-17-13-36-26-18-14-14-11-14-12-10-9-12-11-10-11z" fill="#BFBFAF"/>
<path transform="translate(1242,1020)" d="m0 0h31l28 4 28 6 18 6 14 7 9 3 6 5 9 11 11 12 12 11 14 11 19 14 18 10 14 6 20 5 17 3-3 3h-2l2 6 1 1h15l10-7 4-4 6 1 7 8 8 7 6 3 7-1 7-8 8-13 1-2 6 1 26 10 6-1 2-4 12-4 10-6h4l3 6-1 5-32 32-8 7-11 9-2 4 4 3 7-1-2 5-17 17-7 8-14 14h-35v8l-1 2h-5v30l-12 12-7 6h-3l-2-14-5-15-7-10-9-8-8-4-10-3-17-2-100-1-1 9h-6l1 57v200l-1 6-6-1-2 2h-32l-2-4 1-2 7-4 8-10 4-10 2-9 1-9v-57l-3-14-6-12-9-8-12-6-6-2 1-2 14-5 10-9 4-10 2-15v-21l-2-17-4-14-7-12-3-3 3 10 5 22 3 22 1 19-1 14-2 4-4-2-9-11-10-18-6-15-5-19-3-20-1-11v-11l-13-1-102-1v200l-4-2-16-13-16-15-9-12-8-16-5-18-2-16-1-33-5-55 1-21 4-16 6-12 9-11 10-9 12-7 14-4 5-1h21l13 2h11l-1-3-6-3-10-2-24-3h-14l-17 3-8 4-17 17-9 14-5 13-3 17v22l6 66 2 45 1 9-8-5h-7l-5 7-3 8-2 10-5 12-6 10-6-1-10-6-6-7-8-16-11-35-6-14-12-22-4-9-1-5v-13l4-26v-12l-3-21-5-16-9-23-6-21-2-13v-26l6-17 9-17 12-16 10-10 11-9 2-4 14-5 18-8 20-6 18-3 31-2h28l7 2 3 6v1h10l23 6-5-4-12-7-2-3 9-4 25-6 19-3z" fill="#F7F6F3"/>
<path transform="translate(685,216)" d="m0 0 6 1 5 10 8 22 5 22 2 14v26l-4 28 13-2 39-10 24-4 1 2 1 18 1 2 1 65h3l6-15 8-16 5-7 4 4 1 4h9l6-2 1 5-6 10-24 48-13 27-14 33-3 3-1-24-3-21-6-19-7-17-7-13-8-10-8-6-6-1-2 7h-2l-8-10-8-8-11-7-8-3-12-1-8 4-4 5-2 9v17l3 14 7 12 10 11 11 7 11 4h11l8-3 3-1 2-5 4-8 1-3h2l12 29 12 26 7 13 6 4-1 7-11 27-11 25-7 15h-2l-1-3v-17l1-2 2-21v-19l-3-17-6-17-2-5-6-1-4 1-3 9-8 34-4 2-9-11-12-14-17-17-8-5-1 7 12 40 6 16 8 16 7 11 9 10 11 11 6 1 8-6 5 2 2 3v7l-7 12-8 11-11 13-11 14-10 13-12 19-15 30-12 19-4 3-4-4-1-3v-16l4-21 9-37 7-24 8-26 5-18 1-4-10 15-7 16-8 21-8 16-5 16h-2l-5-17-4-19-5-14-14-29-5-3v18l3 9 6 27 3 12v9h2l1 9 1 8 2 4 4 36 3 20 5 15 7 12 5 17 2 17v9l-2 1-23-5-23-7-16-8-8-7-9-11-3-6-3-11-7-9-5-4-12-18-9-21-2-9-4-6-8-25-7-28-9-57-5-33v-9l4-1 10-9 11-2-1-38-1-16v-38l2-24 4-24 2-7 6-1-2 23v93h2l1-6 9-12 2-4 3-14 6-8 13-8 6-4 8-7 15-9 14-9 6-3h2l-8-16-4-9-3-13-1-15-6 10-7 11-12 13-14 11-16 9-7 3h-6l1-8 9-27 11-23 13-20 11-14 9-10 7-8 8-8 8-7 13-11 5-3h5l-1 6-15 37-11 27-4 9h3v-3l9 1 9 6 10 8 12 12 9-3 26-11 9-1-6-34-2-19v-36l3-21 6-20z" fill="#C0C0AF"/>
<path transform="translate(989,1671)" d="m0 0h12l5 5 3 7 3 24 6 27 2 11-3 10-5 15-8 17-6 8-37 8-43 10-39 9-45 11-26 7-2 1v4h22l26-8 44-8h4l1 8-23 9-1 4h10l37-5 82-11 62-6 51-4 46-3 75-3h27v4l-35 5-50 8-40 4-37 2-79 2-45 3-64 7-66 8-65 9-52 6-40 4-2 8-3 6h-4l-12-9-3-1-2 5-3 4-7-1-21-9-11-7-4-4h-45l-21-3-18-4-14-2-15-8-7-2-17-8-12-5-8-6-5-8-3-6-3-2-43-1-9-2 5-4 17-7 18-4 10-1h21l1 5 4 3 8 3 23 3 4 1-1-1-17-12-2-1v-2l35-4 24-5 25-7 25-10 27-13 22-12 27-14 4-1 4 20 4 4-3-10v-13l1-2h2l1-3 26-6 25-9 24-8 5-1h9l-3 5-6 7-2 5v8l6 11 7 8 3 1-9-18v-10l6-8 9-6 8-4 8-2h47l17 3 7 3 8 2 12 1 33 10 24 6 4 3 8 3-3-4-11-4-17-7-25-7-17-4-17-7-1-3 5-3h32l20-4 50-17zm-505 158 1 4 8 4 12 3 33 4h23l1-2-9-6-28-1-27-3z" fill="#C0C0AF"/>
<path transform="translate(789,699)" d="m0 0 5 1 13 8 13 5 14 3 14 1h23l25-3h6l8 5 7 9 9 16 11 25 4 5 5 15 3 19v10l-3 21-8 24-12 25-10 16-7 9-9 11-21 21-10 13-11 17-12 24-8 18-8 14-5 4-4 1-11-3-8-6-2-8-2-21v-21l3-16 3-9 2-10 3-9 4-6 10-25 8-17 1-4-4-4-4 1-11 15-9 15-9 20-7 15-10 33-6 16-5 4-5-1-6-7-13-22-13-24-12-24-14-33-10-28-9-30-10-39v-8l21-9 25-12 5-4v-4l-12 2-8 2-1-1v-5l9-6 13-8 28-16 25-14z" fill="#F8F7F4"/>
<path transform="translate(308,700)" d="m0 0h7l10 4 13 10 11 9 9 10 8 14 6 14 4 18 1 9v28h1l-1 13-2 11-2 30-2 18-1 15v15l3 28 3 12 4 1 8-16 4-13 3-17 1-15v-27l2-17h-2l1-4 2 1 4-20 6-19 8-21 10-21 2-5 14 8 9 5 21 6 10 2h24l11-2 6 9 20 20 8 7 35 35 10 14 9 14 10 21 5 16-1 5h-4l-12-29-8-15-9-13-13-16-5-6-15-10-33-15-2 4-2 10-1 27 1 21 4 14 7 14 9 11 8 8 16 12 18 12 15 9 19 10 11 8 11 10 5 3h5l2-4-9-19-6-20-6-33-5-19-11-28-11-21-5-8-12-12-7-8-8-9-8-7-5-6 6 2 11 9 12 8 18 13 6 8 9 7 17 17 10 15 7 16 4 13 6 29 6 21 10 24 9 19 4 7-1 4-2 2-10-1-12-4-16-7-20-6-24-4-53-5-25-2-39-5-99-9-18-4-17-7-16-10-13-10-7-6v-2l-6-2-11-7-14-12-11-8-13-11-8-6-1-4 3-8 6 1 4 1 3-5 1-4v-29l-5-29-2-13-2-2-2-5-3-4-2-7 2-4 8-4 2-3h2l-3-11-1-7 3-4h5l7 12 27 18 12 5-5-16-5-25-2-20v-16z" fill="#F6F5F2"/>
<path transform="translate(1175,872)" d="m0 0h11l18 4 44 11 36 6 28 5 16 5 28 11 8 3-1 2-36 10-43 9h-2l2 6 16 5 14 2h32l17-7 16-8h9l14 10 14 14v-2l-8-9-8-11-9-10-5-4-18-7-2-4-14-8-10-5 3-1 23 6 16 4 18 6 24 10 8 6 6 2v3l-5-1-1 7 2 13v11l-10 8-9 9-9 11-11 12-5 8-1 3h-7l-19-5-37-12-25-5-19-2h-41l-28 3-27 5-15 5-15 8-12 9-12 5-8 1-23 1-24 3-22 5-16 6-16 8-5 4-14 10-10 9-8 10-8 13-7 15-5 15-3 17v35l4 30 3 24v20l-5-1-12-11-8-11-8-15-6-18-5-20-3-18-1-10v-35l4-25 6-21 7-18 10-20 12-19 13-17 13-15 13-13 22-18 17-11 17-10 27-12 24-8 23-5 5-1h20l20 2 17 5 21 10 12 8 4 3-2-4v-11l-10-3-10-9-11-7-13-5-18-3-22-3-3-2 2-4 18-5z" fill="#F7F6F3"/>
<path transform="translate(285,1253)" d="m0 0h24l22 4 15 6 10 6 10 9 7 7 8 14 4 11 3 13 1 22v126l-2 31-2 13-5 13-9 14-7 8-11 8-14 7-19 5-6 1h-33l-20-4-15-6-11-7-5-4v-2l-4-2-10-13-5-11-4-15-3-32-1-39v-53l2-45 2-23 3-12 6-11 7-10 9-9 10-7 14-7 15-4z" fill="#465749"/>
<path transform="translate(419,1259)" d="m0 0h102l4 25 10 70 6 37 5-37 9-71 1-10 1-2 5 2 19 13 17 11 15 8 5 3-1-4-8-7-36-26-14-10v-2h103v200l-5-2-9-3 2 5 11 9 1 1v45l-8-8 9 12-1 46-3 1h-67v-64l13 6 5 3 2 1-12-13-8-8v-45h3l-3-2-1-66-4 37-6 40-2 17-2 3-15-14-8-7-13-12-11-9-10-9-10-8-16-13-3-3-3-20 1 18-4-2-39-30-28-21-1-3v-39l5 2 13 10 18 14 16 13 11 9 15 13 14 11 16 11-1-3-7-10-10-9-11-9-13-12-10-9-13-12-7-7-8-7-12-12-16-14v-10l1-11z" fill="#465749"/>
<path transform="translate(1826,1234)" d="m0 0h97l21 2 16 5 8 4 10 9 7 10 4 12 2 21v156l-2 19-5 13-7 10-11 6-12 4-18 2h-110l-1-78v-186zm86 104-12 22-3 9v50l1 41 13-2 1-4 1-13v-103z" fill="#465749"/>
<path transform="translate(1352,1234)" d="m0 0h100l21 3 11 4 9 7 8 9 5 10 4 14 2 17v22l-1 11-5 17-7 9-6 4-15 4 11 4 8 5 7 7 6 12 1 5 1 17v49l-1 43-47 1h-16l-4-2-1-108-2-8-4-3-13-2v122h-72l-1-6v-224z" fill="#465749"/>
<path transform="translate(1126,1033)" d="m0 0h28l7 2 3 6-4 7-6 7-7 12-6 16-3 14-1 14-1 31-5 12-6 12 1 2-6 4-16 16-9 14-5 13-3 17v22l6 66 2 45 1 9-8-5h-7l-5 7-3 8-2 10-5 12-6 10-6-1-10-6-6-7-8-16-11-35-6-14-12-22-4-9-1-5v-13l4-26v-12l-3-21-5-16-9-23-6-21-2-13v-26l6-17 9-17 12-16 10-10 11-9 2-4 14-5 18-8 20-6 18-3z" fill="#C0C0AF"/>
<path transform="translate(1420,135)" d="m0 0 11 1 23 6 29 10 32 12 24 11 24 12 24 14 23 14 22 14 54 36 20 14 11 7 2 1h15l2 4-2 4 1 5 23 23 8 7 16 16 8 7 13 13 2 1v2l4 2 17 17 7 11 5 10 9 11 10 13 10 17 25 51 14 23 8 14 8 20 5 17 4 24 1 9v39l-1 14 2 5v9l-5 10v8l1 2v10l-2 9-7 10-5 6-7 1-4-9-5-21-5-31-6-25-11-33-11-26-14-30-12-22-13-23-14-22-11-16-12-16-13-17-8-10-12-16-9-11-13-16-9-10-7-8-12-13-7-7-7-8-16-16v-2l-4-2-7-7-14-11-13-12-24-22-10-9-10-8-13-11-13-10-16-12-21-14-22-13-23-13-26-16-28-17-13-9z" fill="#C0C0AF"/>
<path transform="translate(1235,1039)" d="m0 0 2 1-2 5-7 9-12 23-2 3v5l6 9 13 16 10 13 8 13 9 17 4 8 7 8 10 6 19 7 11 7 7 6 9 14 5 13 1 5-4 1-4-4-6-9-10-7-23-10-10-7 3 15 10 18 15 25 2 7 6 22 3 18 2 29-1 14-2 4-4-2-9-11-10-18-6-15-5-19-3-20-1-11v-11l-13-1-102-1v200l-4-2-16-13-16-15-9-12-8-16-5-18-2-16-1-33-5-55 1-21 4-16 6-12 9-11 10-9 12-7 14-4 5-1h21l13 2h11l-1-3-6-3-10-2-24-3h-14l-17 3h-5l3-7 7-15 1-3 1-31 2-21 6-18 7-14 7-9 6-7h10l27 7 8-1 17-7z" fill="#F7F6F2"/>
<path transform="translate(1788,656)" d="m0 0h2l4 39 1 13-5 4-20 9-35 16-9 7-10 9-10 12-7 10-2 12-1 8h21l15-4 19-10 13-11 10-11 10-15 6-11h2l2 10 1 15v73l-6 7-4 3v3l3 2 7 2-1 25-1 5-4-2-17-13-14-7-23-7-5-1h-37l-21 2-28 5-15 7-21 9-7 2-1 6 9 2 43 11 12 4 13 2 5 1 32 2 6 1 1 12-10 49-8 30-6 16-3 3h-22l-32-3-21-4-35-9-20-8-40-19-20-11-4-3-8-1-18-11-10-8 4-2 18 1 26 2 9 1h19l26-3 21-6 15-6 16-8 9-5 1-3-12-3h-24l-19 2-12 3h-8l-1-3-1-20v-4l3-3 13-6 10-3 19-7 28-9 24-8 27-11 21-7 22-4 3-2-20 3-15 1-4 1h-9l1-12 9-55 1-12v-41l18-2 27-5 11-1 17-8 14-10 8-8 8-12z" fill="#C0C0AF"/>
<path transform="translate(140,1501)" d="m0 0 4 2 7 10 3 6v2l5 2 4 6 10 6 13 13 17 13 15 11 27 18 25 15 28 15 9 5 7 3 31 14 27 11 27 9 37 10 52 12 17 4h17l4-2 9 1 4 1 20-1 22-3 26-5 23-6 36-12 20-9 16-8 19-10 23-14 19-9 9-1 5 4 4 9 1 23-14 7-12 11-10 9-14 7-7 2h-5l-1-5v-3l-6 4-5 2h-9l-11 4-20 5-11 6-10 7-17 8-17 5-5 1h-7l-6-2h-18l-23 4 34 1 5 2-2 3-21 5-15 4-16 4-9 4-9 6-17 8-7 3-26 5-8 1h-10l-5-3-26-4-68-17-15-6-27-15-4-4-2-6-8-4-3-1v-3l5 1 8 4 21 6h10l-1-4-27-14-17-11-9-7 2-4 6-7 7 1 46 20-4-6-13-18-2-4-25-13-24-14-19-12-16-11-18-13-19-14-13-11-10-9-9-9-13-17-8-13v-2l-5-1-10-7-2-4 2-5z" fill="#C0C0AF"/>
<path transform="translate(1683,1233)" d="m0 0h117l1 1v55l-29 1h-18v50h44v52l-12 1h-32l1 58h52l1 2-1 2v51l-1 1-125 1-1-10v-155l1-83v-9l1-6-3 1-2-2 4-1 1-9z" fill="#465749"/>
<path transform="translate(802,706)" d="m0 0 18 7 14 3 14 1h23l25-3h6l8 5 7 9 9 16 11 25 4 5 5 15 3 19v10l-3 21-8 24-12 25-10 16-7 9-9 11-21 21-10 13-11 17-12 24-8 18-8 14-5 4-4 1-11-3-8-6-2-8-2-21v-21l3-16 3-9 2-10 3-9 4-6 10-25 8-17 1-4-4-4-4 1-11 15-9 15-9 20-7 15-10 33-2 5-1-3-4-1-8-8-7-12-2-6v-19l5-20 6-18 10-19 7-9 9-10 9-8 14-9 16-7 17-5 29-4 15-5 9-5h2v-6l-10 4-5-2-2-2v-8l6-9h2v-2l15-10 5-8 3-10v-6l-4-4-4-1-8 3 1 5 5 7-2 5-4 2h-7l-10-7 1-7 2-4v-3l-20-9-19-10-21-10-14-4-4-1h-8l-22 8-25 12-5 2h-7l5-5 17-12 16-8 13-4 9-2z" fill="#F8F7F3"/>
<path transform="translate(1233,635)" d="m0 0h8l24 11 20 7 14 5v4l-8 11-10 13-8 10-14 18-10 19-10 14-12 14-12 10-17 10-15 8-12 9-3 3-28 16-8 6-14 14-8 7-11 10-11 8-10 7-33 17-16 8-11 5-10 1 1-7 9-21 12-20 9-12 8-10 18-20 15-14 6-4 10-9 6-8 9-10 5-5 4 1 3 7 3-13v-13l-7 6-12 9-13 9-2 2h-6l-11 8-4 6-7 1v-5l4-10 3-7 6-16 3-6 8-31h2l1-6 5-9 3-7 8-4 4-1 26-2 5-1h8l10 3 8 7 17 8 11 4 6 1h19l9-3v-3l-20-8-38-13 3-3 23-11 12-8 11-8z" fill="#C0C0AF"/>
<path transform="translate(1759,526)" d="m0 0 5 2 6 12 10 28 8 31 9 42 7 43 4 32 3 38 1 20v72l-2 31-5 42-5 30-6 22-3 7 26-7 25-6 8-1 3 3-1 6-10 13-10 9-13 8-11 5-21 6-5 1h-31l-5-2-2-2 1-6 18-14 2-4 1-6 10-21 6-18 4-22 4-29 1-3-21 6-17 4-15 2-18 2-38-2-9-2-13-2-15-5-39-10-6-2-1-3 4-4 30-13 11-5 28-5 25-2h33l25 7 14 6 24 18 1-30-7-2-3-2 1-4 8-7 1-2v-73l-2-25h-2l-2 6-10 16-12 14-12 11-10 6-15 7-12 3h-14l-7-1 1-17 4-8 11-13 9-10 12-10 32-15 27-12 2-4-4-42v-8h-2l-1 6-9 12-9 9-16 10-13 6-17 2-27 5-13 1-9-4-3-3 2-9 9-15 8-10 8-8 15-11 10-5 14-3h26l23 4-7-28-7-30-9-31-6-19-1-7z" fill="#C0C0AF"/>
<path transform="translate(409,409)" d="m0 0 4 1 6 9 10 17 9 19 7 20 6 24 3 20 3 31 1 5h16v-11h1l2 17 1 21 8 46 6 28 7 26 5 15 1 11 2 5 2 15-1 7-3 3h-8l-11-6-12-9-6-5-3-5v-2l-4-1-9-14-12-18-9-11-6-5-4-8h-3l7 11 7 14 12 17 12 22v2l-5-1-7-9-11-14-4-6-22-22-7-8-12-12-9-11-6-3-5-1v-13l3-9-11-1-26-6v-2l-9-3-12-6-14-10-13-11-11-13-2-4 1-5 1-1h20l16 3 17 5 22 9 3 3 10 3 7 4 5-1 8-13 5-14 5-19-1-3-13 16-10 13-5 1v2h-2l-3 9-1 2-5-2-2-3 4-2 1-3 5-5 8-14 9-12 9-9 7-8 7-6-4-26-1-18 1-16 5-25 5-10z" fill="#F6F5F1"/>
<path transform="translate(695,1259)" d="m0 0h76l2 1 1 286-1 19h-80l-1-174v-58l1-73z" fill="#465749"/>
<path transform="translate(1624,1233)" d="m0 0h33l1 1v17l-1 15-17 14-10 8-2 1h-17v20l-1 31h28l-2 4-12 11-66 66-3 7 10-4 13-12 8-7 11-10 17-13 13-11 13-10 12-9 3 1-1 39h-43v59h50l1 1v54l-1 1-94 1h-29l-1-3 1-196 14-12 11-9 10-9 11-9 17-16 14-12 5-4z" fill="#465749"/>
<path transform="translate(1530,1316)" d="m0 0h2v195l-1 5 125 1v-9l5-2v-54h-50l-1-1v-50l1-9h43v-39l3-5 13-10 4-4h3l2 74-1 61-1 33v14l62 1-3 3-19 7-16 4-33 4-35 4-29 4h-21l-10-2h-10l-13 3-8 1h-26l-86-5-52-4-21-2-50-4-29-4-17-4-10-4 4-2 26-2 18-4h6l2 1 9 1 28 1 1 3h39l2 2h9l2-1 19-1 3-3 16-4h3v7h66l1-8h6v-93l-1-17-3-10-6-9-8-7-8-4-8-2 1-2 15-4 8-6 5-8 4-15 11-8z" fill="#F8F7F4"/>
<path transform="translate(1132,162)" d="m0 0h31l66 3 34 4 23 4 32 8 24 8 29 13 22 12 21 14 11 9 11 8 12 10 13 10 10 8 11 9 10 8 12 11 11 9 16 15 17 16 12 13 6 9 1 4-6-2-17-10-17-12-14-11-18-14-18-13-15-10-22-14-21-12-44-22-33-13-35-11-30-7-41-7-42-5-29-2h-46l-57 4-44 5-24 3h-6v-28l11-1 66-14 29-5z" fill="#C0C0AF"/>
<path transform="translate(1676,1658)" d="m0 0 8 1 1 2-5 3-18 14-7 10-10 19-9 10-11 10-21 14-24 14-29 15-33 16-36 16-31 14-37 15-40 15-35 12-44 13-48 12-40 8-32 5-70 8-48 7-11 2h-7l-11-2h-18l-15 3h-25l-24-2h-27l1-2 20-3 70-9 21-3 11-1 39-1 36-3 41-5 26-3-9-3v-2l14-6 18-5 21-3h12l-1 3h-5v5l22-3 28-6 11-3-1-6-5-4v-4l32-11 30-13 2-4-28 9-37 8h-7l1-2 52-16 15-7 43-15 28-11 14-6-3-3h-10l-63 14-15 5h-2v-3l18-6 49-11 22-6 36-11 35-12 8-2h6l-1 2-35 13-26 11v2l10-1 33-10h8l12 6 5-1 14-9 42-24 17-10 15-10 13-9 5-4-6-3 1-3 16-8 17-9 13-9z" fill="#F8F7F4"/>
<path transform="translate(773,1704)" d="m0 0h9l-3 5-6 7-2 5v8l6 11 7 8v2h8l11 6v-2l-5-2-5-3v-1l10-1h34l6 2v2l-43 14-36 12-30 9-22 6-44 11-42 9-32 5-21 2h-28l-17-2-12-2v-2l-5-2-14-10-2-1v-2l35-4 24-5 25-7 25-10 27-13 22-12 27-14 4-1 4 20 4 4-3-10v-13l1-2h2l1-3 26-6 25-9 24-8z" fill="#C0C0AF"/>
<path transform="translate(1431,788)" d="m0 0 4 1 12 14 1 5-30 10-5 5-1 6 3 5 16 8 1 4v7l-4 9-6 9-5 4-25 5-17 1h-29l-18-4v-5l2-3-4 1-1 6-18-4-26-5-13-2-13-4-15-2-7-2-30-11-12-6-3-3 2-4 14-8 28-9 16-8 21-7 15-3 23-2 10 1 4 2 4 16 7 21 7 16 4 1 10-11h2l3-9 8-19 4-11 6-7 10-4 11-2 19 1z" fill="#F7F6F3"/>
<path transform="translate(184,696)" d="m0 0 5 1 13 12 20 20 9 11 8 10 8 13 8 16 4 9 2 2 2 5 2 4 3 21 3 18v29l-3 8-4 2-8-3-2 11-6-2-20-12-9-7-6-2-2-5-10-7-7-2-8-6-5-4-15-8-11-8-6-5v-2l-4-2-1-2h2l-1-4 1-18 5-8 6-4 6-2-4-11 2-11 8-14 11-32 2-4z" fill="#C0C0AF"/>
<path transform="translate(1142,678)" d="m0 0h8l10 3 8 7 17 8 11 4 6 1-3 1v2h7l3 3-1 8-11 26-12 18-11 14-15 16-9 9-11 8-24 12-6-1-1-4 8-17-1-1-7 10-8 10-18 18h-13l-5-3-1-5 11-12 10-9v-7l-2-2 10-8 6-7 9-11 9-9 4 1 3 7 3-13v-13l-7 6-12 9-13 9-2 2h-6l-11 8-4 6-7 1v-5l4-10 3-7 6-16 3-6 8-31h2l1-6 5-9 3-7 8-4 4-1 26-2z" fill="#C0C0AF"/>
<path transform="translate(1656,1132)" d="m0 0 4 5 11 13 8 10 7 9 3 2h-2l-1 5-16 16-8 7-7 7-8 7-8 8-8 7-9 8-4 5-11 9-13 12-11 10-11 9-11 10-22 18-1 199 29-1h91l-2 1v9h-122l-3-1 1-200-11 8-8 6h-2v-39l11-9 8-7 1-2 1-30h5l1-10 35-1 19-19 7-8 12-12 2-4-7 2-5-5 4-5 11-9 16-15 23-23z" fill="#BFBFAE"/>
<path transform="translate(417,1373)" d="m0 0 4 1 16 10 22 15 16 11 11 8 2 2v74l-1 71h-69l-1-1-1-37v-84z" fill="#465749"/>
<path transform="translate(802,706)" d="m0 0 18 7 14 3 14 1h23l25-3h6l8 5 7 9 9 16 10 24-7 10-4 8 1 5 4 8-1 7-7 7-11 7-27 13-14 10-13 11-8 7-6 8-6 10-4 4-5-6-4 1-11 15-9 15-9 20-7 15-10 33-2 5-1-3-4-1-8-8-7-12-2-6v-19l5-20 6-18 10-19 7-9 9-10 9-8 14-9 16-7 17-5 29-4 15-5 9-5h2v-6l-10 4-5-2-2-2v-8l6-9h2v-2l15-10 5-8 3-10v-6l-4-4-4-1-8 3 1 5 5 7-2 5-4 2h-7l-10-7 1-7 2-4v-3l-20-9-19-10-21-10-14-4-4-1h-8l-22 8-25 12-5 2h-7l5-5 17-12 16-8 13-4 9-2z" fill="#C0C0AF"/>
<path transform="translate(449,777)" d="m0 0 24 7 10 2h24l11-2 1 3-9 15-7 15-12 36-11 41-4 15-5 11 10 3 9 5 14 10 6 4 13 12 7 8 6 7-2 5-1 1h-12l-16-3-12-5-11-7-13-13-7-8-8-9-7 10-2 3 1 15-2 1h-6l-4-5-2-6-3-30-6-39-1-10v-34l3-15 7-21 7-13 7-6z" fill="#C0C0AF"/>
<path transform="translate(293,1665)" d="m0 0 7 1 23 10 24 10 6 2 16 6 19 6 32 8 39 7 28 4h35l19-2h13v1l34 1 5 2-2 3-21 5-15 4-16 4-9 4-9 6-17 8-7 3-26 5-8 1h-10l-5-3-26-4-68-17-15-6-27-15-4-4-2-6-8-4-3-1v-3l5 1 8 4 21 6h10l-1-4-27-14-17-11-9-7 2-4z" fill="#C0C0AF"/>
<path transform="translate(998,1790)" d="m0 0h2l-1 4-5 2-33 7-43 10-39 9-45 11-26 7-2 1v4h22l26-8 44-8h4l1 8-23 9-1 4h10l37-5 82-11 62-6 51-4 46-3 75-3h27v4l-35 5-50 8-40 4-37 2-79 2-45 3-64 7-66 8-65 9-52 6-40 4-2 8-3 6h-4l-12-9-3-1-2 5-3 4-7-1-21-9-11-7-3-4 50-8 50-10 86-20 73-18 42-10 63-14z" fill="#F8F7F4"/>
<path transform="translate(824,46)" d="m0 0h7l9 2 1 3v7l24-5 26-4 38-3h18l-1 2-37 6-27 6-30 8-36 11-43 14-28 10-44 15-42 15-35 13-37 15-26 11-28 12-31 12-3 3-16 7-5 2-16 8-15 8h-5l1-5 8-7 14-9 21-13 14-8 23-13 33-17 34-17 24-11 3-1 1-4 9-5 11-4 16-4 13-6 16-3 46-11 21-7 12-5 12-3 6-5 3-6 6 1 2 2 6-1 8-4 9-9zm7 12-1 2h6v-2z" fill="#C0C0AF"/>
<path transform="translate(989,1671)" d="m0 0h12l5 5 3 7 3 24 6 27 2 11-3 6-2-3-3-6h-38l-21 5-41 12-25 7-62 18-60 17-42 11-61 15-36 8-37 6-16 2h-11l-9-6v-1l32-3 36-6 42-9 36-9 59-16 45-13 60-18 22-6 8-1 8 2v-5l6-3 15-5 15-6 11-3 11-2 4-2 6 1-3-4-11-4-17-7-25-7-17-4-17-7-1-3 5-3h32l20-4 50-17z" fill="#F8F7F4"/>
<path transform="translate(1818,1470)" d="m0 0h2v31l-1 10-17 13-5 4h-2l-2 4-8 6-48 32-15 8-18 6-43 12-26 6-36 6-28 2h-53l-43-3-31-4-30-5-31-7-3-3 5-4 15-6 10-3 14-1 22 7 27 4 42 4 20 1h63l28-2 25-4 21-6 18-8 15-8 24-15 13-9 21-16 7-5 29-1 1-8 6-2v-23l7-8z" fill="#F8F7F4"/>
<path transform="translate(159,833)" d="m0 0 6 1 4 4 6 33 1 7v8l-7 3-15 5h-2l2 6 19 10 9 4 5 20v11l-3 2h-10l-6-2h-6l-3 2 1 9 7 35 5 12 4 7v4l-11 7-21 14-13 8h-2l-4-21-5-31-3-27-1-17v-24l1-14 4-14 6-5 8-6 1-3v-8l-8-16-3-7 15 1 9 2h7l4-1-1-10-1-7z" fill="#F8F7F4"/>
<path transform="translate(413,541)" d="m0 0 4 2 11 20 14 20 13 16 3 2 1-5 5-6 2-1h8l3 1 2-3 7 41 6 28 7 26 5 15 1 11 2 5 2 15-1 7-3 3h-8l-11-6-12-9-6-5-3-5v-2l-4-1-9-14-12-18-9-11-6-5-4-8-6-2-4-6 2-4 17-9-1-8-12-46-4-22z" fill="#F7F6F3"/>
<path transform="translate(1178,528)" d="m0 0 4 5 2 2-1 4-11 16-7 16-5 18 15-4 23-7 17-6 4 1-16 8-19 9-14 6-1 2 8 3 20 5 10 5v2h-18l-13-4-19-6h-10l-1 4 11 3 11 4v2l-28 7-17 8-14 10-7 7h-2v2h-2l-2 4-12 17-10 15-12 25-17 50-12 36-3 10-3 3h-6l-4-4-4-11-2-16v-15l2-17 5-18 7-16 8-14 13-16 9-10 7-8 12-13 7-7 7-8 42-42 7-8 13-16 16-24 10-17z" fill="#C0C0AF"/>
<path transform="translate(618,264)" d="m0 0h5l-1 6-15 37-11 27-4 9h3v-3l9 1 9 6 10 8 13 13 9 16 9 20 6 20v6l-3 4-7-1-14-8-13-11-5-5-11-10-8-16-4-9-3-13-1-15-6 10-7 11-12 13-14 11-16 9-7 3h-6l1-8 9-27 11-23 13-20 11-14 9-10 7-8 8-8 8-7 13-11z" fill="#465749"/>
<path transform="translate(1118,1043)" d="m0 0h5l-2 5-8 14-6 16-3 16-3 21-4 13-7 12-13 13-20 15-14 12h-3l-5-15-8-17-5-18v-19l4-13 7-14 9-11 8-7 14-8 21-9 11-3z" fill="#F8F7F4"/>
<path transform="translate(308,700)" d="m0 0h7l10 4 13 10 11 9 9 10 8 14 6 14 4 18 1 9v18l-2 11-3 10-1 15-6-2-6-5-5-5-7-9-9-7-11-4-16-6-15-9-12-11-10-11-4-3-6-18 1-5 2-2h5l7 12 27 18 12 5-5-16-5-25-2-20v-16z" fill="#465749"/>
<path transform="translate(1693,847)" d="m0 0h37l25 7 14 6 16 12 8 7-1 8-18 6-21 5-15 2-18 2-38-2-9-2-13-2-15-5-39-10-6-2-1-3 4-4 30-13 11-5 28-5z" fill="#465749"/>
<path transform="translate(495,1426)" d="m0 0 5 2 16 12 19 14 13 10 15 12 13 10-1 15-8 56-2 8h-50l-19-132z" fill="#465749"/>
<path transform="translate(536,534)" d="m0 0h6l5 5 11 13 10 15 8 16 7 19 6 19 4 19 1 8v32l-3 11-1 13-3 3-2 1h-6l-8-7-7-6-11-19-8-20-8-26-4-20-2-16v-19l1-11v-17l3-12z" fill="#465749"/>
<path transform="translate(184,696)" d="m0 0 5 1 13 12 20 20 9 11 8 10 8 13 8 16 4 9 2 2 2 5 2 4 3 21 3 18v29l-3 8-4 2-7-4-4-6-7-7-8-7-7-7-7-8-11-10-11-9-13-12-8-7-3-5-2-6v-5l8 1 16 8 9 7 10 9 5 4-9-32-12-35-11-26-8-16-1-7z" fill="#465749"/>
<path transform="translate(876,361)" d="m0 0 5 2 7 10 10 11 11 16 8 13 8 16 5 13 4 14 2 10 1 11 2 9h-4l-3-9-6-21-9-17-13-17-9-11-5-6-2-1-2 9-5 12-6 14-7 10-9 14-12 13-11 8-10 6-17 6-9 1-4-3 1-9 11-29 11-22 12-17 9-10 9-9 16-12 9-4 4-2-3-10v-8z" fill="#465749"/>
<path transform="translate(1680,1245)" d="m0 0h2v32l-2 132-2-1-1-45v-29l-5 3-8 7-8 6-1 2-7 4-14 11-25 20-14 11-15 14-8 7-9 7-5 2h-3l1-5 7-8 40-40 4-5 8-7 17-17 5-4 1-2h-28v-42l1-9 17-1 6-4 14-12 8-6 1-15h1v13l10-8 9-8z" fill="#C0C0AF"/>
<path transform="translate(1495,999)" d="m0 0 5 1 19 14 22 14 15 10 13 11 17 17 9 11 10 14 14 24 7 15v8l-3 2-8-1-16-7-13-5-27-21-8-5-4-2-9-12-10-12-13-17-7-19-10-24-4-10v-5z" fill="#465749"/>
<path transform="translate(1628,1033)" d="m0 0 5 2 9 9 11 9 10 9 11 9 10 11 10 13 8 11 3 7 10 23 6 11 4 13 4 19-1 5-8 2-14-5-17-10-4-2-9-11-13-16-6-8-9-17-10-30-10-39-2-6v-6z" fill="#465749"/>
<path transform="translate(803,1747)" d="m0 0h34l6 2v2l-43 14-36 12-30 9-22 6-44 11-42 9-32 5-21 2h-28l-17-2-12-2v-2l-5-2-14-10-2-1v-2l35-4h10l-2 4 11-2h14l5 1h39l25-3 26-5 26-7 33-11h2l1-7 1-1h8l3 3 8 1-4-5 3-3 12-3 17-3 10-3h3v-2h3v2h8l11 6v-2l-5-2-5-3v-1z" fill="#F8F7F4"/>
<path transform="translate(1564,710)" d="m0 0h19l9 3 10 6 7 7 7 14 1 3v21l-4 10-8 10-10 8-15 7h-9l-11-3-11-7-10-9-4-5-4-8-1-5v-16l5-16 7-8 11-8z" fill="#465749"/>
<path transform="translate(1431,788)" d="m0 0 4 1 12 14 1 5-30 10-5 5-1 6 3 5 16 8 1 4v7l-4 9-6 9-5 4-25 5-16 1v-2h-6l-2-3-11-1-4-2-1-3v-12l3-10 1-11 9-20 5-14 6-7 10-4 11-2 19 1z" fill="#F7F6F3"/>
<path transform="translate(1319,665)" d="m0 0 12 2-2 5-10 13-9 11-10 14-11 19-3 7v5l3 2h8l12-5 6-4h2l2-4 8-11 14-19 9-12 10-13 2-2h10l7 2-1 5-1 3v7l3 6 5 5 6 5 1 5-5 5-15 7-17 9-13 10-4 2-2 4-14 10-16 9-15 6-16 4-7 1h-16l4-10 22-45 9-17 12-20 8-12 9-8z" fill="#C0C0AF"/>
<path transform="translate(662,1259)" d="m0 0h1v202l6 2 11 8 6 5 1-61v-144l5-1 1-3v298h80v-19l2-2 15 16 6 7 6 2 10-4 12-9 19-19 8-7 10-7 5-1 2 2-1 5-12 12-7 8-10 10-8 7-11 10-17 13-11 6h-5v-2l-4-2-5-5-9-6-8-4-4-1h-12l-3 13-4 7-10 7-9 6-8 1v-5l10-9-1-7-7-9-4-4-21-2v-29l-3-1 1-2 2 1-1-52-22-18-1 43h-3l-6-7-1-4 5 5 3 4v-44l-13-11v-4l7 1 7 4z" fill="#BFBFAE"/>
<path transform="translate(501,1089)" d="m0 0 9 1 4 3v7l-13 23-12 16-9 11-10 10-14 11-15 9-8 3h-2v2l-17 2h-16l-2-3 1-8 5-15 8-15 11-14 10-10 15-11 16-9 23-9z" fill="#465749"/>
<path transform="translate(717,1134)" d="m0 0h11l12 3 10 6 5 5 8 9 4 9 1 5v10l-4 13-9 12-8 6-11 5-4 1h-18l-9-4-9-6-8-9-5-13v-18l3-10 7-11 10-8 9-4z" fill="#465749"/>
<path transform="translate(432,314)" d="m0 0h18l9 4 11 8 7 8 4 8 2 9v9l-4 13-7 11-9 8-11 5-9 2-13-1-9-4-9-6-8-10-4-9-1-4v-18l5-12 6-8 7-6 12-6z" fill="#465749"/>
<path transform="translate(1475,1145)" d="m0 0h15l22 3 20 4 20 7 16 8 15 10 11 9 4 4v7l-5 4-12 3-15 2h-21l-16-2-16-4-15-6-15-9-14-11-11-11-6-8v-5l6-3 4-1z" fill="#465749"/>
<path transform="translate(1065,368)" d="m0 0h6l6 13 3 10 9 6 11 11 6 10 3 8v19l-5 12-7 10-7 7-3 13-3 14-3 5-6-2-6-7-5-17-4-8-10-11-7-11-4-11v-18l5-12 7-9 7-7 2-9 3-14z" fill="#465749"/>
<path transform="translate(1790,733)" d="m0 0h2l2 10 1 15v73l-6 7-4 3v3l3 2 7 2-1 25-1 5-4-2-17-13-14-7-23-7-6-2 1-8 5-17 11-27 4-10h-2v-2l9-7 10-9 10-12 11-18z" fill="#F8F7F4"/>
<path transform="translate(1436,959)" d="m0 0h1l2 13 4 18 3 18v11l-26 26-4 6-7-1-40-11-19-7-20-9-10-3-15-4-24-3h-39l-26 3-26 5-14 5-11 1-2-1 1-3 14-7 22-7 18-4 14-2h56l28 4 17 3 16 5 10 4 32 6 19-1 11-2 1-2-13 1h-11l-10-3 3-1 1-5 7-9 11-12 9-11 10-10 6-4z" fill="#C0C0AF"/>
<path transform="translate(409,409)" d="m0 0 4 1 6 9 10 17 9 19 7 20 6 24 3 20 3 31-1 4-3 2-7-1-11-6-12-11-8-8-8-16-6-11-3-17-2-17v-13l2-17 4-19 5-10z" fill="#465749"/>
<path transform="translate(1737,639)" d="m0 0h26l25 5 2 5v6l-5 10-8 10-8 8-16 10-13 6-17 2-27 5-13 1-9-4-3-3 2-9 9-15 8-10 8-8 15-11 10-5z" fill="#465749"/>
<path transform="translate(263,989)" d="m0 0h15l-2 5-6 9-9 8-16 11-15 10-21 12-17 8-19 7-23 6-13 2-14 1-9 1-2-4 3-6 8-9 5-4 5-5 22-14 19-13 3-2 16-4 21-8 12-4 31-6z" fill="#465749"/>
<path transform="translate(1012,368)" d="m0 0 5 1 6 28 1 7v35l-4 21-7 20-8 16-6 10-4 2-6 8-5 6-8 7-5 3-3-5-2-9v-18l5-28 5-21 7-21 10-23 15-31z" fill="#465749"/>
<path transform="translate(389,1353)" d="m0 0 4 2 11 8 7 5 1 99v30l-1 69-5-1-35-16-4-1 2-5 8-11 5-11 3-10 2-19 1-21z" fill="#F8F7F4"/>
<path transform="translate(435,1044)" d="m0 0h26l47 5 19 3 7 3-2 4-16 8-20 9-21 7-10 2-18 1-28-1-30-4-25-6-1-5 4-5 15-9 16-6 19-4z" fill="#465749"/>
<path transform="translate(518,787)" d="m0 0h2l4 6 20 20 8 7 35 35 10 14 9 14 10 21 5 16-1 5h-4l-12-29-8-15-9-13-13-16-5-6-15-10-33-15-2 4-2 10-1 27v18l-1-3-4 1-2 10v21l1 10v23l-11-6-12-9-11-5-5-2 3-9 4-13 11-42 12-36 5-12 8-15 3-3z" fill="#F7F6F2"/>
<path transform="translate(1235,1039)" d="m0 0 2 1-2 5-7 9-12 23-2 3v5l6 9 13 16 10 13 8 13 9 17 4 8 7 8 10 6 19 7 11 7 7 6 9 14 5 13 1 5-4 1-4-4-6-9-10-7-23-10-10-7 3 15v3l-5-1-2-9-8 1 2-12-1-10-4-12-6-14-24-34-9-12-9-11-6-2-2 6-10 18-9 11-10 9-7 4-5-1-1-1v-28l3-14 5-12 7-11 9-10 8-7 5-5 12-5 14-6z" fill="#465749"/>
<path transform="translate(1683,1021)" d="m0 0h32l16 3 18 6 16 8 16 10 14 11 8 7 2 3-1 4-8 5-10 3-21 2-30-7-15-4-22-14-10-6-5-6-11-9-7-7 1-5 2-2z" fill="#465749"/>
<path transform="translate(294,1306)" d="m0 0h8l5 6 2 17v162l-1 17-3 7-3 3-8 1-5-3-2-3-3-18v-156l1-18 4-11z" fill="#F9F8F5"/>
<path transform="translate(1116,793)" d="m0 0 1 3-8 17v3l6 1 20-10h4l-3 9-2 5-16 16-8 7-11 10-11 8-10 7-33 17-16 8-11 5-10 1 1-7 9-21 12-20 9-12 8-10 18-20 15-14 5 1v7l-17 16-4 5 1 5 4 2h13l20-20 7-10z" fill="#F6F5F2"/>
<path transform="translate(520,367)" d="m0 0h2l-2 23v93h2l1-6 9-12 5-5 13-10 12-9 23-13 22-12h3l-1 9-8 16-6 9-12 12-16 11-13 8-18 8-13 4-2 15-2 40-2 18v21l2 24 3 18 4 15 6 16 1 5h2l3 8 3 4-1 4-7-10-11-21-6-19-3-14-1-12-2-90-1-38-1-16v-38l2-24 4-24 2-7z" fill="#465749"/>
<path transform="translate(173,887)" d="m0 0h24l23 5 10 4 17 11 14 11 14 14 9 12 8 14 6 11v3h-11l-19-7-19-10-17-12-15-10-14-8-16-8-16-7-17-9-2-2v-5l14-5z" fill="#465749"/>
<path transform="translate(583,1066)" d="m0 0h5l1 4-8 23-13 27-12 18-11 14-12 13-10 9-13 11-13 9-7 4 1-5 4-14 7-26 8-21 10-19 8-11 10-11 13-10 19-10z" fill="#465749"/>
<path transform="translate(1369,510)" d="m0 0 3 1 1 2-1 10-2 9-3 20-1 5v10l2 5v11l-3 9-3 5-2 7-4 5-7 5-7 2h-29l-12-2-4-3 1-10 4-13 8-16 7-10 8-11 9-10 7-8 7-7 11-9 8-6z" fill="#465749"/>
<path transform="translate(1491,509)" d="m0 0h22l17 4 5 3-1 6-8 11-4 5-15 10-15 9-18 8-13 4-17 3-10 1h-12l-6-3-1-1 1-9 7-11 8-10 9-9 15-10 11-5 12-4z" fill="#465749"/>
<path transform="translate(1459,805)" d="m0 0h22l29 4 13 3 21 8 10 5 2 2-1 5-16 7-15 4-9 2-13 1-8 2h-34l-13-4-17-2-15-7-3-3-1-6 3-6 6-4 28-9z" fill="#465749"/>
<path transform="translate(329,1660)" d="m0 0 10 3 29 12 31 11 34 9 24 5 29 4 15 1h12l33-2 31-4 33-7 31-8h8l3 3-2 4-16 6-20 5-18 1-9 4-4 4-6 3-19 3-17 1-19 2h-35l-46-7-34-7-29-8-23-8-9-5-10-13-7-10z" fill="#F8F7F4"/>
<path transform="translate(970,143)" d="m0 0h7l6 15 4 20 2 16-1 20-2 4-2 11-10 23-7 9-6 9-10 20-1 1h-7l-2-4-2-22 1-35 5-24 3-12 8-22 10-23z" fill="#465749"/>
<path transform="translate(685,216)" d="m0 0 6 1 5 10 8 22 5 22 2 14v26l-3 20-3 10-5 12-3 9-5 6h-6l-3-8-5-15-5-27-2-19v-36l3-21 6-20z" fill="#465749"/>
<path transform="translate(222,598)" d="m0 0h8l7 6 12 21 5 15 2 9v25l-4 24-7 16-8 11-4 4-4-1-5-10-8-24-5-22-1-7v-35l3-18 4-10z" fill="#465749"/>
<path transform="translate(275,549)" d="m0 0h20l16 3 17 5 22 9 3 3 10 3 12 7 9 7 13 9 5 4 9 11 2 5-4 2h-13l-16-4-20-3-26-6v-2l-9-3-12-6-14-10-13-11-11-13-2-4 1-5z" fill="#465749"/>
<path transform="translate(1199,704)" d="m0 0h7l3 3-1 8-11 26-12 18-11 14-15 16-9 9-11 8-24 12-6-1-1-4 10-21 5-11 2-9 4-5 8-12 13-16 15-15 13-10 9-6z" fill="#465749"/>
<path transform="translate(263,771)" d="m0 0h4l6 12 16 20 9 10 14 19 11 17 9 19 4 16 1 16-4 6-7-4-13-10-5-1v17l-2 5-4-1-8-9-5-11-5-18-3-17-2-20-5-20-6-17-6-10-2-13 1-5z" fill="#465749"/>
<path transform="translate(989,1671)" d="m0 0h12l5 5 3 7 3 24v6l-16 9-7 2h-10l1 10 1 3h-7l-7-4 2-1-3-4-11-4-17-7-25-7-17-4-17-7-1-3 5-3h32l20-4 50-17z" fill="#C0C0AF"/>
<path transform="translate(901,460)" d="m0 0 5 3 12 16 11 16 8 13 10 21 9 27 12 30 1 2v6l-7 1-15-6-9-5-12-11-9-13-7-15-6-19-4-23-1-10v-30z" fill="#465749"/>
<path transform="translate(1343,315)" d="m0 0 12 3 25 9 10 4 4 2h15l10 6 11 9 10 9 11 9 7 5 22 7 6 4 7 8 2 5h-40l-20 1 1-5 5-5v-6l-5-4-7-1-7 7-6-1-19-12-12-8-10-7-18-11-12-4-2-4-1-7v-9z" fill="#F8F7F4"/>
<path transform="translate(1455,394)" d="m0 0h20l16 1 9 2 7 5-1 4-5 5-11 8-21 13-14 3-1 5-5-1h-9l-10 1h-27l-19-4-9-4-1-4 10-9 14-9 16-8 16-5 13-2z" fill="#465749"/>
<path transform="translate(1793,709)" d="m0 0h2l-1 12-3 12-9 16-9 12-11 12-12 10-21 10-12 3h-14l-7-1 1-17 4-8 11-13 9-10 12-10 32-15 27-12z" fill="#465749"/>
<path transform="translate(300,433)" d="m0 0 5 1 2 2v31l-2 17-4 16-6 14-8 12-8 10-12 13-16 12-5 3-4-2-1-5 13-48 6-18 8-18 9-15 9-11 11-12z" fill="#465749"/>
<path transform="translate(413,541)" d="m0 0 4 2 11 20 14 20 13 16 9 12 11 21 5 13 4 20v17l-4 10-2 3-4-1-14-19-14-20-10-15-5-8-13-49-5-26z" fill="#465749"/>
<path transform="translate(1555,937)" d="m0 0 14 1 17 4 12 5 13 7 15 11 4 4 3 8-2 3-21 6h-25l-22-4-18-6-24-11-13-7-2-5 3-5 9-4 13-4z" fill="#465749"/>
<path transform="translate(879,587)" d="m0 0 5 1 17 10 20 11 16 10 10 8 10 9 9 9 9 13 7 16 3 12h-10l-28-11-17-9-11-9-12-12-13-17-9-16-7-16v-8z" fill="#465749"/>
<path transform="translate(1205,230)" d="m0 0 5 2 6 10 7 19 6 33-5 30-8 16-7 12-6 7h-6l-4-4-4-11-2-12-1-22v-17l1-13 9-34 5-12z" fill="#465749"/>
<path transform="translate(1307,796)" d="m0 0 10 1 4 2 4 16 7 21 7 16 4 1 10-11h2l1-2v8l-3 10v12l1 3 3 1 11 1 2 3 6 1-1 2h-29l-18-4v-5l2-3-3 1-4-18h-9l-16 7-3 2 1-5 6-19v-5h-6l-8 3h-7l-2-4-4-16h-7l-14 5-18 5h-2v-8l-2-1 16-8 21-7 15-3z" fill="#C0C0AF"/>
<path transform="translate(1517,1061)" d="m0 0 5 5 13 16 8 10 5 7 6 3 9 6 16 13 9 6-5 10-8 11-6 5-8-1-8-7-10-9v-2h-6l-9 8-5 3h-15l-3-3v-5l3-2-3-2h6l-2-10 1-11 1-10-7-8 3-9 6-13z" fill="#C0C0AF"/>
<path transform="translate(171,437)" d="m0 0 7 1 5 6 8 14 7 21 4 19 2 23 2 38v11l-1 2-5-1-7-6-13-18-8-18-5-17-3-18-1-11v-18l2-21 3-5z" fill="#465749"/>
<path transform="translate(531,191)" d="m0 0h3l3 8 2 16v16l-2 23-6 24-5 13-8 14-6 8-11 9-6 4-6-1v-8l10-57 5-22 5-13 6-12 11-17z" fill="#465749"/>
<path transform="translate(182,915)" d="m0 0 10 3 15 8 4 4-1 5v21l4 28 2 9v5l3 1-26 10-16 4-2-3-8-16-6-27-3-16 1-5 3-2 9 1 3 1h10l2-1v-11l-4-14z" fill="#C0C0AF"/>
<path transform="translate(1687,1053)" d="m0 0 6 1 24 15 5 3 38 9 5 1v1h-5l-2 6-8 17-12 19-7 9-9 11-2 2-6-11-10-23-3-7-9-12-11-14-2-3 1-6 6-16z" fill="#C0C0AF"/>
<path transform="translate(832,518)" d="m0 0 37 1 20 2 4 2-1 5-9 7-21 12-19 7-17 3h-27l-27-2-5-2 1-5 4-6 5-5 7-6 12-6 17-5z" fill="#465749"/>
<path transform="translate(1889,1041)" d="m0 0 1 3-12 21-11 13-12 14-9 11-13 15-11 13-12 13-15 16-28 28-8 7-10 9-11 9-13 11-10 7h-2v2h-22l5-5 9-8 13-10 12-11 8-7 12-11 17-16 7-7 8-7 20-20 7-8 20-20 8-7 15-16 7-7 7-8 11-12 7-6z" fill="#C0C0AF"/>
<path transform="translate(1e3 286)" d="m0 0 11 1 29 7 21 8 21 10 12 9 6 7 5 10 2 8v6l-2 2h-8l-17-5-19-7-16-8-17-10-20-20-8-11z" fill="#465749"/>
<path transform="translate(769,113)" d="m0 0h5l1 9-14 7-21 8-24 10-30 13-30 14-23 11-56 28-12 7-18 8-7 1-1 2v-16l17-8 19-10 23-12 37-17 41-17 34-14 31-13 25-10z" fill="#C0C0AF"/>
<path transform="translate(1125,1042)" d="m0 0h7l2 3-9 19-5 17-3 27-2 19-3 10-7 10-10 10-11 9-16 13-6 7-3 9-1 10 3 15v15l-4 1-8-16-8-22-3-16 1-2 5-2 14-12 16-12 10-9 7-8 7-14 3-13 4-28 6-18 8-15z" fill="#465749"/>
<path transform="translate(603,470)" d="m0 0h6l5 5 8 16 6 16 4 19v14l-3 19-4 12-4 8-5 5-4 1-3-4-9-25-4-17-2-18v-15l2-17 3-12 3-6z" fill="#465749"/>
<path transform="translate(1132,331)" d="m0 0 4 1 4 5 6 13 7 20 2 6 1 12v12l-2 27-4 19-4 15-1 1h-6l-3-5-6-18-5-25-1-8v-34l3-29 3-10z" fill="#465749"/>
<path transform="translate(260,772)" d="m0 0 1 2 1 13 9 18 6 19 4 20 2 19 5 23 5 13 6 9 4 4h3l1-4v-17l4-1 21 15v12l2 10 7 16 2 5v5l-6-3-13-10-7-6v-2l-6-2-11-7-14-12-11-8-13-11-8-6-1-4 3-8 6 1 4 1 3-5 1-4v-29l-5-29-2-13-2-2-2-5-3-4-2-7 2-4z" fill="#F5F4F0"/>
<path transform="translate(1279,1207)" d="m0 0 3 4 10 18 8 14 5 8 1 5 6 22 3 18 2 29-1 14-2 4-4-2-9-11-10-18-6-15-5-19-3-20-2-24v-22l1-3h3z" fill="#BFBFAE"/>
<path transform="translate(1847,964)" d="m0 0 4 1 2 2-1 6-10 13-10 9-13 8-11 5-21 6-5 1h-31l-5-2-2-2 1-6 18-14 5-4 20-8 44-12z" fill="#465749"/>
<path transform="translate(111,846)" d="m0 0 15 3 2 6 8 15 1 3v8l-3 5-11 8-3 7-2 8-1 14v24l2 27 5 37 5 29 1 4-5 5-5-12-7-36-7-45-3-25v-43l5-31z" fill="#C0C0AF"/>
<path transform="translate(437,1181)" d="m0 0 5 2 15 9 17 11 36 24 37 25 9 6 3 1 5 5 20 14 18 13 9 7 8 7-1 4-5-3-20-11-12-8-20-14-4-2-4 36-8 62-2 17h-1l-1-9v-20l11-88-4-4-25-16-19-12-26-17-21-13-22-13-5-6v-2h-6v-1h7v-2z" fill="#C0C0AF"/>
<path transform="translate(1675,1262)" d="m0 0h1v45l-5 5-13 12-11 9-5 5-3 2h-29v-31l12-6 7-5 20-1 1-8h8l-1-8 2-6 14-11z" fill="#F7F6F3"/>
<path transform="translate(1379,936)" d="m0 0h9l14 10 14 14 3-1 1 6-10 9-10 7-5 4-9 3-10-5-3-4-9-2-17-1-5-5-2-7v-7l2-5-3-1h7l17-7 10-5z" fill="#C0C0AF"/>
<path transform="translate(294,1306)" d="m0 0h8l5 6 2 17v162l-1 17-3 7-3 3-8 1-5-3-2-3-3-18v-156l1-18 4-11zm-8 27v166l3 3 9 5 3 1 1-2v-163l-11-8z" fill="#C0C0AF"/>
<path transform="translate(1788,656)" d="m0 0h2l4 39 1 13-5 4-20 9-35 16-4-1-2-3v-10l3-11 6-10 2-4 17-8 14-10 8-8 8-12z" fill="#F7F6F3"/>
<path transform="translate(345,1006)" d="m0 0h26l30 5 3 1-1 3-22 10-21 8-12 3-9 1h-22l-16-3-14-7-4-4v-2l56-14z" fill="#465749"/>
<path transform="translate(1077,269)" d="m0 0 4 1-3 3-17 8-19 7-6 3-1 1h-7l-22-5-7-1v6l-14 7-17 4-15 3-59 15-29 10h-4l2-5 3-3 17-5 16-5 3-9 6-7 2-1h9l8 4 4 1 5-4 16-1 39-10 3-5 10-2 30-5z" fill="#F8F7F4"/>
<path transform="translate(1411,1133)" d="m0 0 7 1 5 4 9 11 10 13 10 16 9 17 9 21v5h-7l-13-7-13-10-8-8-10-15-6-13-4-17-2-8 1-8z" fill="#465749"/>
<path transform="translate(455,917)" d="m0 0 13 1 15 6 8 5 13 9 6 4 13 12 7 8 6 7-2 5-1 1h-12l-16-3-12-5-11-7-13-13-7-8-8-9-2-3 1-8z" fill="#465749"/>
<path transform="translate(446,1006)" d="m0 0h14l38 3 25 4 9 1 35 4 17 4 5 2 2 3-1 6-2 6-8 3-3-1-4-2-21-4-23-4-32-8-5 1-8 3h-7l-12-8-13-10-6-2z" fill="#C0C0AF"/>
<path transform="translate(1233,1515)" d="m0 0 10 2 9 4 5 3 5 5 8 6 19 8 19 6 43 10 37 9v2l-32 6-28 5-5 1-15-11-20-14-34-24-16-12z" fill="#F7F6F3"/>
<path transform="translate(809,1701)" d="m0 0h47l17 3 7 3 8 2v2l-12 2-25 5-29 9-36 12h-4l-4-8v-10l6-8 9-6 8-4z" fill="#F7F6F3"/>
<path transform="translate(174,629)" d="m0 0h2l-1 9-12 31-9 29-13 52-8 39-2 10-5-2-6-4v-2l-2-1 3-15 6-38 5-19 11-29 11-25 9-19 10-15z" fill="#C0C0AF"/>
<path transform="translate(1898,1281)" d="m0 0 11 1 6 3 3 4 1 9v133l-2 21-5 5-1-3 1-13v-102l-12 23-1 3h-2v-74z" fill="#C0C0AF"/>
<path transform="translate(1729,699)" d="m0 0h10l-1 4-6 12-2 8v10l3 5-14 12-10 11-10 14-5-2-1-14 1-51-10-1v-1l18-2z" fill="#C0C0AF"/>
<path transform="translate(1575,619)" d="m0 0 3 1-4 7-6 9h8l23-4h12l-1 5-10 6-15 8-20 8-13 3-21 1-9 2-14 4-7-1v-5l9-7 23-13 22-13 5-3 13-5z" fill="#465749"/>
<path transform="translate(400,505)" d="m0 0 4 1 10 21-3 1-3 9-6 36-3 23-5-2-14-10-8-6 4-5 7-11 5-14 5-19-1-3-13 16-10 13-5 1v2h-2l-3 9-1 2-5-2-2-3 4-2 1-3 5-5 8-14 9-12 9-9 7-8z" fill="#C0C0AF"/>
<path transform="translate(510,815)" d="m0 0h6l4 4-3 16-1 27v18l-1-3-4 1-2 10v21l1 10v23l-11-6-12-9 3-2 1-4 1-32 3-22 5-22 8-27z" fill="#C0C0AF"/>
<path transform="translate(1719,820)" d="m0 0 3 1-1 2-6 2-15 2-19 6-29 11-15 6-41 13-22 8-12 4-13 7-15 7-17 11-8 4h-10v-3l16-10 13-10 8-4 9-6 19-9 20-7 29-9 40-12 19-7 14-3 22-2z" fill="#465749"/>
<path transform="translate(308,1069)" d="m0 0h9l10 4 16 10 13 10 14 10 9 7 15 11 10 7v3l-2 2-7-1-6-2h-20l-2-1v-2l-4-2-16-13-14-12-18-13-11-7v-7z" fill="#C0C0AF"/>
<path transform="translate(913,1437)" d="m0 0h3l7 21 6 10 10 12 17 13 17 10 23 11 14 9 9 9 5 8 5 14 1 5v19l-3 14-4 10-6 9-2 6-1 2-4 1-6 9-5 3-10 8-5 3-3-1 12-9 7-6 7-8h2l1-4 6-9 4-17 1-9v-12l-3-14-5-12-7-9-14-10-24-12-14-8-14-11-12-12-9-14-5-13-2-9z" fill="#C0C0AF"/>
<path transform="translate(844,241)" d="m0 0 8 4 7 6 8 5-2 5-7 10-10 14-11 14-6 8h-2l-3-15-4-18-3-7-4-9-2-9 8-3 14-4z" fill="#C0C0AF"/>
<path transform="translate(1472,716)" d="m0 0h35l18 1v3l-11 8-14 7-21 5-14 2h-25l-9-2-5-3-1-3 4-5 20-8 15-4z" fill="#465749"/>
<path transform="translate(1024,908)" d="m0 0h3l-1 4-5 1-2 4-8 5-6 4-10 8-22 22-13 17-12 19-13 25-8 19-8 23-7 23-7 28-7 38-2 16-1 3h-4l1-14 7-45 7-33 8-28 8-22 9-19 10-18 12-17 11-13 9-10 15-15 13-10 15-11z" fill="#EEEDE7"/>
<path transform="translate(782,323)" d="m0 0 2 2 1 13-2 3-12 2-27 9-34 13h-9l-5-1 3-11 7-17 1 3 13-2 39-10z" fill="#C0C0AF"/>
<path transform="translate(1550,880)" d="m0 0 2 1v4l1 20 1 4-19 5-28 6-8 1h-38l-14-1v-3l11-2 16-6 9-5 9-3 1 2 5-1 1 1h10l13-7 14-9 13-6z" fill="#C0C0AF"/>
<path transform="translate(1220,1130)" d="m0 0 4 1 3 3 3 11 1 12v67l-4 1-6-8-8-15-5-15-2-12v-9l4-20 5-12z" fill="#465749"/>
<path transform="translate(1087,113)" d="m0 0h11l15 4 10-1h60v2l-2 1-38 2-39 2-40 5-29 3-25 4-31 8-2 2v-2h-7l-1 2-11 2-25 6-19 3-9 1 1-2 40-13 24-6 28-5 30-5 41-10z" fill="#C0C0AF"/>
<path transform="translate(431,632)" d="m0 0 4 5 10 15 14 20 14 19 2 3 3 2-4 8-9 9v-2l-4-1-9-14-12-18-9-11-6-5-4-8-6-2-4-6 2-4 17-9z" fill="#C0C0AF"/>
<path transform="translate(168,837)" d="m0 0 6 1 11 6 8 6 4 5 16 9 5 6 4 3h-4l2 9 3 9v2l-11-2-15-3-22-1v-9l-6-35z" fill="#C0C0AF"/>
<path transform="translate(909,1498)" d="m0 0 9 3 11 6 5 4 7 11 3 11v14l-3 17-5 12-10 13-13 13-16 12-19 11-20 11-18 8-7 3-6 4-1 1h-5l4-5 10-5 7-4 25-14 22-14 12-9 13-12 10-13 6-12 3-13v-14l-4-12-5-9-11-14z" fill="#C0C0AF"/>
<path transform="translate(363,656)" d="m0 0h5l1 1v8l-10 27-1 4v10l6 9v6l-5 4-5 1-1 2-7-7-13-10-10-7-2-2 5-5 10-12 7-10 11-13z" fill="#C0C0AF"/>
<path transform="translate(1517,1061)" d="m0 0 5 5 13 16 12 15-1 5-23 23-9 7h-3l-2-9 1-11 1-10-7-8 3-9 6-13z" fill="#F8F7F3"/>
<path transform="translate(1234,1384)" d="m0 0 16 3 3 3 1 3 1 11v41l-3 9-3 3-11 3h-5v-75z" fill="#F5F4F0"/>
<path transform="translate(1536,516)" d="m0 0 7 1 11 8 17 17 2 3-1 4-11 6-6 4-4 1-3-2 2 3-9 7h-8l-8-25-2-4 1-5 4-5 5-7z" fill="#C0C0AF"/>
<path transform="translate(1017,1188)" d="m0 0 5 1 8 8 10 17 6 12 8 25 1 4v18l-1 5-4-1-5-11-11-23-17-28-6-10-2-9 4-6z" fill="#465749"/>
<path transform="translate(1232 1e3)" d="m0 0h56l28 4 7 2 3 2-7 7-9-1-18-3-11-1h-39l-26 3-26 5-14 5-11 1-2-1 1-3 14-7 22-7 18-4z" fill="#F2F1EC"/>
<path transform="translate(1299,1024)" d="m0 0 26 5 19 6 17 8v2l-25 7h-16l-12-4-12-6h-8l-12 4h-10l-2-2 9-7 14-8 12-4z" fill="#C0C0AF"/>
<path transform="translate(1684,707)" d="m0 0h11l-1 66 4 1-1 5-2 5-4 4-2 35-7 3h-9l1-12 9-55 1-12z" fill="#F8F7F4"/>
<path transform="translate(950,338)" d="m0 0h4l3 8v38l-4 25-5 18-6 8-3-1-3-6-1-7v-12l2-19 7-33 2-9 3-9z" fill="#465749"/>
<path transform="translate(1352,1762)" d="m0 0h13l1 2-28 3-42 2-82 2-57 3-48 4-54 7-22 3h-12l1-4 64-8 43-5 51-3 49-2 70-2z" fill="#F9F8F5"/>
<path transform="translate(478,587)" d="m0 0h1l7 41 6 28 6 23v2h-14l-2-23-4-15-6-15-9-17-6-8 2-7 5-6 2-1h8l3 1z" fill="#C0C0AF"/>
<path transform="translate(266,767)" d="m0 0h4l2 4 7 6 7 8 10 9 17 10 23 8 9 6 8 9 1 3-5 4-1 2v8l1 2v8l-5 13-2 1 3-11 1-3v-9l-6-8-10-9-16-11-14-8h-6l-9-9-7-9-9-13-2-7-3-1z" fill="#BFBFAE"/>
<path transform="translate(1687,1053)" d="m0 0 6 1 24 15 5 3-2 5-9 14-5 12-2 5h-2l-6-9-11-14-6-8 1-6 6-16z" fill="#F7F6F3"/>
<path transform="translate(1234,1281)" d="m0 0 12 1 5 3 3 6 1 6v29l-2 9-4 4-7 2h-8l-1-1v-58z" fill="#F7F6F3"/>
<path transform="translate(596,698)" d="m0 0h5l6 9 11 27 5 14 1 16-4 10h-4l-10-12-4-11-4-14-3-19v-18z" fill="#465749"/>
<path transform="translate(1172,280)" d="m0 0h12l3 2v11l-2 7-61-6-33-3-1-2 13-4 14-3 7-1h33l6 3-2 4z" fill="#F8F7F4"/>
<path transform="translate(1285,1117)" d="m0 0h26l29 1 5 2v5l-11 7-11 4-12 1-19-2-20-4-5-2 1-5 8-5z" fill="#465749"/>
<path transform="translate(1427,1396)" d="m0 0 8 1 2 2 1 4v74l-1 3-9 2h-5l1-84z" fill="#F8F7F4"/>
<path transform="translate(145,1196)" d="m0 0 7 6 13 16 8 11 9 11 12 13 13 13 8 7 9 8-5 8-8-3-12-11-13-12-7-8-10-13-13-19-9-15-2-6z" fill="#C0C0AF"/>
<path transform="translate(1424,1281)" d="m0 0 11 1 6 3 3 7 1 15v11l-2 15-5 5-8 3h-5l-2-4v-45z" fill="#F4F3EF"/>
<path transform="translate(1434,1717)" d="m0 0h28l10 3v2l-24 4-27 3-29 2h-26l-13-4-5-3-1-6h8l5 1h35l28-1h9z" fill="#F8F7F4"/>
<path transform="translate(1515,844)" d="m0 0h6l10 8-1 12-2 18-10 8-19 12-6 1 1-4 8-10 1-8v-7l4-6 1-9-2-13z" fill="#F7F6F2"/>
<path transform="translate(1367,1695)" d="m0 0 34 5 43 6 19 4 24 8 4 2 1 4 7 2 11 6 1 3-5-2-12-6-21-5-8-3-3-1-29-2-28-6-36-6-3-1z" fill="#465749"/>
<path transform="translate(1437,447)" d="m0 0 5 1 8 10 13 17 5 4 5-1-2-6-10-13-5-7v-2l4 2 10 8 15 15 7 8 6 7 2 4-1 5-4 4-6 1-8-2-9-7-11-12-12-16-12-18z" fill="#F9F8F5"/>
<path transform="translate(746,1639)" d="m0 0h4l2 3-1 5-14 10-25 15-12 7-8 4-8 2h-4v-4l-5-5 1-4 10-5 25-11z" fill="#F8F7F4"/>
<path transform="translate(1034,1695)" d="m0 0 14 3 18 6 6 4 8 7 6 2 1 3-9 3-10 2-22 2h-8l-2-4-2-14z" fill="#C0C0AF"/>
<path transform="translate(587,1728)" d="m0 0h7l-1 3-19 10-21 8-47 14-17 4-34 4h-38l-2-2 1-1h40l21-2 15-3 4-3 8-3 17-8 6-3 13-4 12-7 12-2 7-2z" fill="#C0C0AF"/>
<path transform="translate(944,200)" d="m0 0h2l-1 12-4 18-3 6-15 1-9-13v-2l-4-2-9-9 3-2 14-4z" fill="#C0C0AF"/>
<path transform="translate(979,1489)" d="m0 0 10 3 20 9 13 7 10 7 6 5 7 10 5 12 2 11-1 14-5 19-8 16-5 5 2-9 4-10 3-16v-17l-4-15-7-13-11-12-10-7-24-13-7-4z" fill="#C0C0AF"/>
<path transform="translate(1156,1243)" d="m0 0h4l1 191-4-2-3-3 1-185z" fill="#C0C0AF"/>
<path transform="translate(1258,301)" d="m0 0h7l9 5 10 1-1 5-19 38-3 5h-10l1-11 4-24z" fill="#F5F4F0"/>
<path transform="translate(1898,1289)" d="m0 0 7 1 5 3 2 3 1 26v16l-12 22-2 5h-2v-74z" fill="#F4F3EF"/>
<path transform="translate(311,891)" d="m0 0 5 2 14 11 2 2v11l2 10 7 16 2 5v5l-6-3-13-10-7-6v-2l-4-2h2l-3-15-2-18v-5z" fill="#C0C0AF"/>
<path transform="translate(820,1200)" d="m0 0 3 1 1 5v14l3 17 6 16 9 15 11 13 7 7 12 9 14 8 5 6v2l4-2 4 3v4l-5-1-15-9-17-12-13-10-8-7-8-10-8-14-5-14-2-12v-23z" fill="#C0C0AF"/>
<path transform="translate(1234,293)" d="m0 0 6 1 12 6v10l-5 25-4-2-6-5-12-5v-10l3-19z" fill="#F6F5F1"/>
<path transform="translate(1468,933)" d="m0 0 18 1 26 2 9 1h27l-4 2-17 3-17 6-3 5 1 5-2 1-6-4-8-1-18-11-10-8z" fill="#C0C0AF"/>
<path transform="translate(1459,433)" d="m0 0h10l16 12 6 8 1 2 12 2 16 8v6l-2 3-7 2-3 1-10-5-2-4 3-2v-3h-3l-1 2-4-1-14-10-13-10-5-3-4-1v-5z" fill="#F8F7F4"/>
<path transform="translate(884,35)" d="m0 0h11l3 2 11 1h11l18-2 6-1-3 3-5 3 1 3 7 1v1l-53 4-19 3-4-1-1-6-1-4 6-1 8 1v-2l-4-1v-2zm5 1 2 2 1-2z" fill="#F9F8F5"/>
<path transform="translate(1571,667)" d="m0 0h9l6 4 6 10v13l-4 5-2 1h-9l-6-4-6-7-2-4v-10l3-5z" fill="#F9F8F5"/>
<path transform="translate(972,253)" d="m0 0h45l15 3 1 2-9 3-32 6-31 4 2-5 7-11z" fill="#F8F7F3"/>
<path transform="translate(1824,1179)" d="m0 0 5 1v2h2l-2 5-11 11-9 11-14 15-10 9h-20l4-4 8-6 13-11 5-5 5-3 18-18 4-5h2z" fill="#B8B9A8"/>
<path transform="translate(809,1701)" d="m0 0h30l4 2-22 11-22 5-8 4-5 3h-7v5h-1v-10l6-8 9-6 8-4z" fill="#C0C0AF"/>
<path transform="translate(392,525)" d="m0 0 2 1-2 12-6 19-5 10-7 10-6-1-8-4-3-1 3-10 2-3h2v-2l6-3 10-13 8-10z" fill="#F7F6F3"/>
<path transform="translate(1657,917)" d="m0 0 4 1-1 9-9 25-12 25-9 12-18-2 2-3 17-5 1-3-3-9 5-5 5-10 11-23 6-11z" fill="#F7F6F3"/>
<path transform="translate(261,1024)" d="m0 0 5 1 30 30 2 3-1 5-3 3-7-1-8-6-11-11-7-8-4-4 1-9z" fill="#C0C0AF"/>
<path transform="translate(531,1014)" d="m0 0 36 4 17 4 5 2 2 3v4l-2 1h-12l-16-2-27-4-6-3-1-6z" fill="#F5F4F0"/>
<path transform="translate(824,46)" d="m0 0h7l9 2 1 3v7l-5 1h-5l-7 3-52 12-15 4-3-1 13-4 9-3 5-6 2-4 6 1 2 2 6-1 8-4 9-9z" fill="#F9F8F5"/>
<path transform="translate(1e3 681)" d="m0 0h10l-1 5-4 5-3 5-4 7-1 2-40 3 5-5 10-5 6-4v-6l-2-1 14-3z" fill="#F6F5F2"/>
<path transform="translate(573,842)" d="m0 0 7 6 7 7 10 14 9 14 10 21 5 16-1 5h-4l-12-29-8-15-9-13-13-16-4-6h4z" fill="#C0C0AF"/>
<path transform="translate(851,264)" d="m0 0h9l1 2-7 11-12 16-11 14h-2l-3-15-1-10 6-2 10-8 8-7z" fill="#C0C0AF"/>
<path transform="translate(854,249)" d="m0 0 5 2 8 5-2 5-3 4h-11l-8 6-9 8-8 4-2-2-3-10 1-4 19-10 12-7z" fill="#F6F5F2"/>
<path transform="translate(203,1221)" d="m0 0 4 2 8 6 32 16 11 5 8 4 5 1v1l-15 4-7 2-7-3-11-9-10-9-7-8-11-10z" fill="#C0C0AF"/>
<path transform="translate(1567,872)" d="m0 0h4l-1 32-5 3-4 1h-8l-1-3-1-20v-4l3-3z" fill="#F6F5F2"/>
<path transform="translate(1210,710)" d="m0 0 9 6 8 6 2 3v6l-4 5-11 4h-15l-1-4 10-24z" fill="#F7F6F3"/>
<path transform="translate(503,697)" d="m0 0h1l1 11 2 5 2 15-1 7-3 3h-8l-11-6-8-6 3-2 8-7 13-11z" fill="#C0C0AF"/>
<path transform="translate(1538,1234)" d="m0 0h33l-6 7-20 20-7 5z" fill="#465749"/>
<path transform="translate(765,1730)" d="m0 0 7 1 6 10v3l-13 2-8 4-8 2h-14l-5-2 1-3 19-10 12-6z" fill="#F8F7F3"/>
<path transform="translate(260,772)" d="m0 0 1 2 1 13 9 18 6 19 4 20v12l-2-4-6-1-1 12h-1l-1-25-5-29-2-13-2-2-2-5-3-4-2-7 2-4z" fill="#C0C0AF"/>
<path transform="translate(1234,1384)" d="m0 0 16 3 3 3 1 3 1 11v41l-3 9-3 2-1-48-1-10-7-3-5-1-2 2v-11z" fill="#BFBFAE"/>
<path transform="translate(1342,899)" d="m0 0 10 2 21 5 21 6 15 6-2 1v2l-3 2h-15l-3 1-18-7-2-4-14-8-10-5z" fill="#C0C0AF"/>
<path transform="translate(1620,657)" d="m0 0 5 1 1 28 3 10 4 6v2l7 2-1 4h-11l-4-4-8-20-2-7v-13l3-6z" fill="#F9F8F5"/>
<path transform="translate(776,276)" d="m0 0 4 2v15h-1v-7l-13 4-20 7-13 4h-4v-5l9-6 16-8 16-5z" fill="#C0C0AF"/>
<path transform="translate(1508,737)" d="m0 0 8 1v26l3 47-9-1v-26l-2-23z" fill="#F8F7F4"/>
<path transform="translate(130,1067)" d="m0 0h7l8 17 10 19 10 22v2l-5-1-8-8-8-16-11-24-2-9z" fill="#C0C0AF"/>
<path transform="translate(1234,1281)" d="m0 0 12 1 5 3 3 6 1 6v29l-2 9-3 2-1-5-1-22-2-12-3-5-9-4v51h-1v-58z" fill="#C0C0AF"/>
<path transform="translate(782,333)" d="m0 0h2l1 5-2 3-12 2-27 9-34 13h-9l-5-1v-2l5-2 10-2 31-12 34-11z" fill="#F8F7F4"/>
<path transform="translate(371,612)" d="m0 0h9l16 4 11 1v1l-7 2-5 8h-14l-3 4v3l-10-2v-13z" fill="#C0C0AF"/>
<path transform="translate(1444,1011)" d="m0 0 2 3v5l-26 26-4 6-7-1-6-3 5-5 13-12 4-5 11-8z" fill="#F8F7F4"/>
<path transform="translate(1536,516)" d="m0 0 7 1 11 8 17 17 2 3-1 4-8 4h-2l-3-7-11-12-7-7-6-5v-5z" fill="#F8F7F4"/>
<path transform="translate(456,720)" d="m0 0 4 4 8 13 9 6 10 9 10 11 3 5-2 4-3 3-5-1-9-12-11-15-7-12-4-6-3-4z" fill="#C1C1B0"/>
<path transform="translate(1474,564)" d="m0 0 4 1 1 5 6 15 3 12 3 6-1 5-4 5h-2l-6-16-7-17-3-10v-4z" fill="#F7F6F3"/>
<path transform="translate(1424,1281)" d="m0 0 11 1 6 3 3 7 1 15v11l-2 15-4 4h-1l-1-38-4-5-9-4z" fill="#C0C0AF"/>
<path transform="translate(327,600)" d="m0 0 5 1 2 1-2 9-12 19-9 11-7 7-3-1 6-15 15-25z" fill="#C0C0AF"/>
<path transform="translate(672,1754)" d="m0 0h5l-1 5-8 6-15 4-28 6h-7l1-3 24-10 15-5z" fill="#F9F8F5"/>
<path transform="translate(899,1318)" d="m0 0 6 1 9 6 5 11 6 4 4 9 2 10v16l-3 12-8 16h-2l1-6 4-13 3-12v-9l-4-14-5-12-10-9-4-5-4-4z" fill="#C0C0AF"/>
<path transform="translate(1565,798)" d="m0 0 10 1-2 23-3 13-2 2-7-1-5-3 1-5 3-3 3-9z" fill="#F8F7F4"/>
<path transform="translate(554,800)" d="m0 0 6 2 11 9 12 8 18 13 5 6v2l-12 2-12-12-7-8-8-9-8-7z" fill="#C0C0AF"/>
<path transform="translate(945,341)" d="m0 0h3l-1 7-2 1-19 1-24 4-20 6-5 1-1-4h-2v-2l16-4 25-5z" fill="#F8F7F4"/>
<path transform="translate(474,544)" d="m0 0h1l2 17v18l-5-2-3-7-14-2-3-6v-5l-2-1 6-2 1-2 1 3h16z" fill="#C0C0AF"/>
<path transform="translate(1526,532)" d="m0 0h2l7 13 8 9 3 2v2l4 2-5 5-4 3h-8l-8-25-2-4 1-5z" fill="#F7F6F2"/>
<path transform="translate(353,1756)" d="m0 0h8l30 5 23 6v2h-14l-38-4-4-2-5-5z" fill="#C0C0AF"/>
<path transform="translate(941,217)" d="m0 0h1l-1 13-3 6-15 1-8-11v-3l13-3z" fill="#F6F5F2"/>
<path transform="translate(586,1414)" d="m0 0h2l-1 69-4-2-4-5v-14l6-42z" fill="#F4F3EF"/>
<path transform="translate(1611,1392)" d="m0 0h43v1h-7v8l-10 1h-20l-6-2z" fill="#C0C0AF"/>
<path transform="translate(285,1339)" d="m0 0h1l1 71v35l-1 53-2-3v-155z" fill="#C0C0AF"/>
<path transform="translate(1218,1699)" d="m0 0 10 1 48 12 41 11 7 4-3 1-41-11-52-12-9-3z" fill="#465749"/>
<path transform="translate(200,1095)" d="m0 0 5 1 1 4-12 23-4 1-5-4v-8l3-6 10-10z" fill="#C0C0AF"/>
<path transform="translate(1076,1715)" d="m0 0 10 2 1 3-9 3-10 2-22 2h-8l1-5 14-3z" fill="#F7F6F3"/>
<path transform="translate(880,158)" d="m0 0h4l1 6-4 3-18 5-9 2h-11l-1 2-1-1-8-1v-1l11-2 19-8z" fill="#C0C0AF"/>
<path transform="translate(812,929)" d="m0 0 12 4 1 1-1 9-5 4-14 5v-7l4-12z" fill="#C0C0AF"/>
<path transform="translate(1786,1392)" d="m0 0h10l-4 1v7h-37l-1-1v-6z" fill="#BDBEAD"/>
<path transform="translate(1234,839)" d="m0 0 5 1 10 11 4 9h-8l-12-3 3-2-4-5-1-2v-6z" fill="#C0C0AF"/>
<path transform="translate(1045,335)" d="m0 0 7 1 8 4-2 5-8 7h-8l-4-3 1-6 5-6z" fill="#F7F6F3"/>
<path transform="translate(436,686)" d="m0 0 5 5 9 16 6 11v2l-5-1-7-9-11-14-1-4h2l1-5z" fill="#C1C1B1"/>
<path transform="translate(1155,373)" d="m0 0 12 2 30 7 31 9 5 2-1 4-6-1-20-8-26-7-15-3-9-1z" fill="#F9F8F5"/>
<path transform="translate(1029,325)" d="m0 0 6 2 2 3-13 6-4 1h-10l-4-2-6-1v-2z" fill="#F7F7F3"/>
<path transform="translate(1038,1670)" d="m0 0 7 2 7 9 3 9-1 3-8-4-5-4-5-6v-7z" fill="#C0C0AF"/>
<path transform="translate(1781,1291)" d="m0 0h14v6h-38l-3-1v-4z" fill="#BEBEAD"/>
<path transform="translate(591,1373)" d="m0 0h1l1 70 4 4-4-1-1 4-1 20h-1l-1-50v-31z" fill="#DFDFD6"/>
<path transform="translate(381,1787)" d="m0 0 16 2 7 1v2h-36l-8 1 1 3-7 2h-6l-2-3 10-5 7-2z" fill="#C3C2B2"/>
<path transform="translate(1341,1690)" d="m0 0 23 4 1 1v7l-13-1-11-3-2-2 1-5z" fill="#465749"/>
<path transform="translate(1094,873)" d="m0 0h2v2l-19 8-16 8-21 12-6 5-4 1-3-1 2-4 9-4 29-16 22-10z" fill="#D4D4C8"/>
<path transform="translate(505,1749)" d="m0 0h8v2l-16 7-26 5-8 1h-10l-2-3 24-2 13-3 11-5z" fill="#F2F1EC"/>
<path transform="translate(563,1265)" d="m0 0 4 1 17 12 18 13 9 7 8 7-1 4-10-6-5-8-19-13-19-14z" fill="#ECEBE5"/>
<path transform="translate(626,1782)" d="m0 0h6v5l-7 2-20 3h-10v-2l13-4z" fill="#F9F8F5"/>
<path transform="translate(1450,1784)" d="m0 0h4v3l-36 12-7 2h-4v-3z" fill="#C0C0AF"/>
<path transform="translate(892,1173)" d="m0 0 3 2 3 34v5l-4-4-2-7-1-1-1-17v-9z" fill="#C5C5B5"/>
<path transform="translate(1245,661)" d="m0 0 6 3 8 8 8 5v5l-7-1-8-5-7-10-1-4z" fill="#F9F8F5"/>
<path transform="translate(287,1315)" d="m0 0 9 1 4 3 1 3v10l-5-2-11-7z" fill="#F7F6F2"/>
<path transform="translate(1021,1600)" d="m0 0 1 3-5 8-2 6-1 2-4 1-6 9-5 3-10 8-5 3-3-1 12-9 7-6 7-8h2l1-4 6-9 1-3z" fill="#D6D6CA"/>
<path transform="translate(525,345)" d="m0 0 4 1-3 14-3 10-1-3-6 1 1-8 5-12z" fill="#C0C0AF"/>
<path transform="translate(1667,897)" d="m0 0 10 1-1 12-1 1h-10v-12z" fill="#F7F6F2"/>
<path transform="translate(539,289)" d="m0 0 4 2-1 5-7 4-3 4-8 2-5-3 4-8 1 3 8-2 5-3z" fill="#C0C0AF"/>
<path transform="translate(898,1953)" d="m0 0 32 1 23 3-4 3-5 1h-10l1-2-37-5z" fill="#F9F8F5"/>
<path transform="translate(1137,1093)" d="m0 0 1 4-2 32h-2l-3-13v-11l4-9z" fill="#465749"/>
<path transform="translate(1825,912)" d="m0 0 7 1 2 2 1 11-1 2-7-1-2-3-1-11z" fill="#C0C0AF"/>
<path transform="translate(345,1153)" d="m0 0 5 1 10 6 23 11 7 3v4l-8-1-6-6-16-8-15-8z" fill="#BCBCAB"/>
<path transform="translate(1765,903)" d="m0 0 5 1 3 5 1 8-1 1h-7l-4-10 1-4z" fill="#C0C0AF"/>
<path transform="translate(477,1766)" d="m0 0h4v2l-26 3h-38l-2-2 1-1h40z" fill="#CFCFC2"/>
<path transform="translate(990,334)" d="m0 0h5l-2 2-22 5-11 3-4 2-1-7z" fill="#F8F7F3"/>
<path transform="translate(1435,1864)" d="m0 0 3 1-16 13-8 6 1-3v-8l17-8z" fill="#F9F8F5"/>
<path transform="translate(1006,1560)" d="m0 0 4 2 1 8-2 15-3 8h-2z" fill="#D9D9CE"/>
<path transform="translate(260,772)" d="m0 0 1 2 1 13 5 10 2 5-2 3-8-16-3-4-2-7 2-4z" fill="#DDDDD3"/>
<path transform="translate(899,1318)" d="m0 0 6 1 9 6 5 11 2 1v3l-3-1-13-13-6-7z" fill="#C1C1B1"/>
<path transform="translate(1162,829)" d="m0 0h2l2 10v11l-1 1h-6l1-13 1-8z" fill="#C1C1B0"/>
<path transform="translate(1435,1493)" d="m0 0 3 1v6l-10 4h-4v-7l2-2z" fill="#F9F8F5"/>
<path transform="translate(295,984)" d="m0 0h23l2 5-24-1-4-1v-2z" fill="#C0C0AF"/>
<path transform="translate(488,1756)" d="m0 0m-3 1 7 1v1l-21 4-8 1h-10l-2-3 24-2z" fill="#E9E8E1"/>
<path transform="translate(647,108)" d="m0 0 3 1-14 6-15 6-4-1 7-5 14-5z" fill="#F9F8F5"/>
<path transform="translate(848,1637)" d="m0 0 2 2-10 5-7 3-6 4-1 1h-5l4-5 10-5 7-4z" fill="#E2E1D9"/>
<path transform="translate(1013,1967)" d="m0 0 10 1 1 4-4 5-7-1-1-1v-7z" fill="#C0C0AF"/>
<path transform="translate(1094,873)" d="m0 0h2v2l-19 8-17 8-2-2 15-8 16-7z" fill="#CECEC0"/>
<path transform="translate(477,498)" d="m0 0h10l1 4-2 5-4 1-4-2-1-2z" fill="#C0C0AF"/>
<path transform="translate(1656,1277)" d="m0 0h2v11l-15 1 5-5z" fill="#465749"/>
<path transform="translate(863,612)" d="m0 0h6l-3 2-16 3-20 2h-9v-1l25-4z" fill="#F9F8F5"/>
<path transform="translate(599,1290)" d="m0 0 5 2 11 10 4 3-1 4-10-6-5-8-4-3z" fill="#EBEAE4"/>
<path transform="translate(545,1348)" d="m0 0h1v14l-3 24h-1l-1-9v-20h1l1 5z" fill="#D2D2C5"/>
<path transform="translate(1024,908)" d="m0 0h3l-1 4-5 1-2 4-4 3h-2v-2l-6 2 5-5 6-4z" fill="#D5D5C9"/>
<path transform="translate(375,814)" d="m0 0 3 2-1 13-1 6h-1v-9h-2v11l-1 5h-1v-15z" fill="#C2C2B2"/>
<path transform="translate(1898,1281)" d="m0 0 11 1 6 3 2 2-1 5-2-1v-2l-15-5z" fill="#EEEDE8"/>
<path transform="translate(1182,1015)" d="m0 0 2 1-4 6-11 2-3-2 12-6z" fill="#CCCCBE"/>
<path transform="translate(1678,599)" d="m0 0h2l2 6 1 12v10l-2-1-3-18z" fill="#F9F8F5"/>
<path transform="translate(398,1817)" d="m0 0h3v8l-2 3-6-1-1-4 5-5z" fill="#C0C0AF"/>
<path transform="translate(881,1305)" d="m0 0 5 2 5 4v2l4-2 4 3v4l-5-1-11-7z" fill="#D5D5C9"/>
<path transform="translate(1709,1645)" d="m0 0h7l9 6v1l-21-3 3-3z" fill="#CACABC"/>
<path transform="translate(1493,1360)" d="m0 0 3 1-1 3-6 3-2 2-10-3 1-2z" fill="#CFD0C7"/>
<path transform="translate(289,379)" d="m0 0 4 1 1 6-3 2-6-1-2-2 4-5z" fill="#F9F8F5"/>
<path transform="translate(1397,1802)" d="m0 0 2 1-4 3-21 7h-3v-3l21-6z" fill="#B6B8A7"/>
<path transform="translate(1133,862)" d="m0 0 3 1-16 5-14 3-4-1 16-5z" fill="#CBCBBC"/>
<path transform="translate(926,1380)" d="m0 0 2 1v6l-8 16h-2l1-6 2-5h2l2-10z" fill="#E6E5DD"/>
<path transform="translate(1306,1352)" d="m0 0 2 1-4 5-8 4-6-2 1-2 14-5z" fill="#D1D1C6"/>
<path transform="translate(1040,1590)" d="m0 0 2 1-1 6-7 10-1-3 5-13z" fill="#DCDCD2"/>
<path transform="translate(1723,1644)" d="m0 0h12l2 2-6 6-1-3h-5z" fill="#C7C6B7"/>
<path transform="translate(979,1489)" d="m0 0 10 3 7 3v3l2 1-6-1-13-7z" fill="#D3D2C6"/>
<path transform="translate(1242,559)" d="m0 0 4 1-6 4-12 5-4 2-3-1 13-7z" fill="#D2D1C5"/>
<path transform="translate(260,772)" d="m0 0 1 2v13l-5-5-2-4 2-4z" fill="#C2C2B1"/>
<path transform="translate(929,46)" d="m0 0h18l-1 2-15 2-5-1v-2z" fill="#A5A998"/>
<path transform="translate(381,1787)" d="m0 0 16 2 7 1v2l-17-1-9-1z" fill="#E0E0D7"/>
<path transform="translate(1177,1022)" d="m0 0h6l-2 2-5 2-11 1-2-1 1-3h8z" fill="#E3E2DA"/>
<path transform="translate(363,1788)" d="m0 0h16v1l8 1v1h-19l-6-1z" fill="#CCCCBE"/>
<path transform="translate(820,1200)" d="m0 0h2l-1 23-2-2v-19z" fill="#F2F1EC"/>
<path transform="translate(843,1851)" d="m0 0 11 1v3l-14 1-1-3z" fill="#BDBDAC"/>
<path transform="translate(662,1488)" d="m0 0h1v27h-3l-6-7-1-4 5 5 3 4z" fill="#CACABB"/>
<path transform="translate(1754,1393)" d="m0 0h25v1l-19 2h-6z" fill="#F9F8F5"/>
<path transform="translate(1407,1161)" d="m0 0h3l-1 5-8 5-2-1 6-8z" fill="#C0C0AF"/>
<path transform="translate(1051,656)" d="m0 0h4l-2 4-4 5-4 1 2-6z" fill="#C6C6B6"/>
<path transform="translate(631,247)" d="m0 0h2l1 6-6 7-5 1 5-6 2-7z" fill="#B8B9A8"/>
<path transform="translate(496,1760)" d="m0 0m-1 1m-1 1 4 1v2l-9 2h-8l1-2z" fill="#CBCBBD"/>
<path transform="translate(1226,1929)" d="m0 0h3l-2 4-5 4h-2v-6z" fill="#F9F8F5"/>
<path transform="translate(488,1756)" d="m0 0m-3 1 7 1v1l-16 3h-3v-2z" fill="#E5E4DD"/>
<path transform="translate(1031,903)" d="m0 0h6l-2 4-5 2-3-1 2-4z" fill="#DCDCD2"/>
<path transform="translate(1781,1613)" d="m0 0 4 4 1 5-5-1-1-7z" fill="#C0C0AF"/>
<path transform="translate(620,930)" d="m0 0 3 1 3 7-1 4-2-1-3-7z" fill="#D3D2C6"/>
<path transform="translate(613,1301)" d="m0 0 6 4-1 4-5-3-3-3h3z" fill="#D5D5C9"/>
<path transform="translate(1021,1600)" d="m0 0 1 3-4 7h-2l1-7z" fill="#E7E6DF"/>
<path transform="translate(1234,1386)" d="m0 0h13l2 3-11-1z" fill="#EFEEE8"/>
<path transform="translate(881,1305)" d="m0 0 5 2 4 3v2l-6-1-3-4z" fill="#EDECE6"/>
<path transform="translate(1388,1181)" d="m0 0 3 1-3 7h-3l2-7z" fill="#C0C0AF"/>
<path transform="translate(1681,1019)" d="m0 0 3 1-1 2-11 1 1-3z" fill="#CCCCBE"/>
<path transform="translate(828,1646)" d="m0 0h2l-2 4-2 2h-5l4-5z" fill="#ECEBE5"/>
<path transform="translate(1154,855)" d="m0 0 4 1-6 3-7 1v-2z" fill="#D5D4C8"/>
<path transform="translate(554,800)" d="m0 0 6 2 4 5-3 1-7-7z" fill="#D7D6CB"/>
<path transform="translate(1024,908)" d="m0 0h3l-1 4-5 1-3-2z" fill="#CFCFC1"/>
<path transform="translate(332,1857)" d="m0 0h2l-1 4-5 1 1-3z" fill="#7F8879"/>
<path transform="translate(1412,121)" d="m0 0 4 1-1 5-3-2z" fill="#F9F8F5"/>
<path transform="translate(728,1938)" d="m0 0 7 1 1 2-8-1z" fill="#C0C0AF"/>
<path transform="translate(328,1735)" d="m0 0 2 1-1 4h-3z" fill="#C4C4B4"/>
<path transform="translate(784,1951)" d="m0 0h7l2 2-9-1z" fill="#C0C0AF"/>
<path transform="translate(768,1948)" d="m0 0 10 1v1l-10-1z" fill="#C0C0AF"/>
<path transform="translate(113,1458)" d="m0 0h2l3 4-1 3z" fill="#C9C9BA"/>
<path transform="translate(836,1957)" d="m0 0h5v2h-5z" fill="#C0C0AF"/>
<path transform="translate(1434,125)" d="m0 0 3 1-2 2z" fill="#C0C0AF"/>
<path transform="translate(756,1945)" d="m0 0 4 1-2 1z" fill="#C0C0AF"/>
<path transform="translate(744,1942)" d="m0 0 4 1-2 1z" fill="#C0C0AF"/>
<path transform="translate(844,46)" d="m0 0h5v1h-5z" fill="#F9F8F5"/>
<path transform="translate(779,59)" d="m0 0 1 2-3-1z" fill="#F9F8F5"/>
<path transform="translate(1236,56)" d="m0 0 4 1z" fill="#F9F8F5"/>
<path transform="translate(840,47)" d="m0 0 4 1z" fill="#F9F8F5"/>
<path transform="translate(1227,55)" d="m0 0 3 1z" fill="#F9F8F5"/>
<path transform="translate(110,1448)" d="m0 0" fill="#C0C0AF"/>
<path transform="translate(83,1195)" d="m0 0" fill="#F9F8F5"/>
<path transform="translate(1392,118)" d="m0 0 2 1z" fill="#F9F8F5"/>
<path transform="translate(781,1950)" d="m0 0" fill="#C0C0AF"/>
</svg>
